0
SECTION
2
HEADER
9
$INSUNITS
70
4
9
$ACADVER
1
AC1014
9
$HANDSEED
5
FFFF
0
ENDSEC
0
SECTION
2
TABLES
0
TABLE
2
VPORT
5
8
100
AcDbSymbolTable
0
ENDTAB
0
TABLE
2
LTYPE
5
5
100
AcDbSymbolTable
0
LTYPE
5
14
100
AcDbSymbolTableRecord
100
AcDbLinetypeTableRecord
2
BYBLOCK
70
0
0
LTYPE
5
15
100
AcDbSymbolTableRecord
100
AcDbLinetypeTableRecord
2
BYLAYER
70
0
0
ENDTAB
0
TABLE
2
LAYER
5
2
100
AcDbSymbolTable
70
2
0
LAYER
5
50
100
AcDbSymbolTableRecord
100
AcDbLayerTableRecord
2
0
70
0
6
CONTINUOUS
0
ENDTAB
0
TABLE
2
STYLE
5
3
100
AcDbSymbolTable
70
1
0
STYLE
5
11
100
AcDbSymbolTableRecord
100
AcDbTextStyleTableRecord
2
STANDARD
70
0
0
ENDTAB
0
TABLE
2
VIEW
5
6
100
AcDbSymbolTable
70
0
0
ENDTAB
0
TABLE
2
UCS
5
7
100
AcDbSymbolTable
70
0
0
ENDTAB
0
TABLE
2
APPID
5
9
100
AcDbSymbolTable
70
2
0
APPID
5
12
100
AcDbSymbolTableRecord
100
AcDbRegAppTableRecord
2
ACAD
70
0
0
ENDTAB
0
TABLE
2
DIMSTYLE
5
A
100
AcDbSymbolTable
70
1
0
ENDTAB
0
TABLE
2
BLOCK_RECORD
5
1
100
AcDbSymbolTable
70
1
0
BLOCK_RECORD
5
1F
100
AcDbSymbolTableRecord
100
AcDbBlockTableRecord
2
*MODEL_SPACE
0
BLOCK_RECORD
5
1B
100
AcDbSymbolTableRecord
100
AcDbBlockTableRecord
2
*PAPER_SPACE
0
ENDTAB
0
ENDSEC
0
SECTION
2
BLOCKS
0
BLOCK
5
20
100
AcDbEntity
100
AcDbBlockBegin
2
*MODEL_SPACE
0
ENDBLK
5
21
100
AcDbEntity
100
AcDbBlockEnd
0
BLOCK
5
1C
100
AcDbEntity
100
AcDbBlockBegin
2
*PAPER_SPACE
0
ENDBLK
5
1D
100
AcDbEntity
100
AcDbBlockEnd
0
ENDSEC
0
SECTION
2
ENTITIES
0
LWPOLYLINE
5
100
100
AcDbEntity
8
0
100
AcDbPolyline
90
68
70
1
43
0.0
10
322.12992642261094
20
8.4999732888794206
10
332.7636581894206
20
8.4999732888761095
42
0.41421356237309476
10
340.2636650940542
20
15.999980193509556
42
0.41421306317216305
10
332.76365921582988
20
23.499973288893351
10
322.12992642261094
20
23.499973288879414
10
322.12992642260525
20
41.96697328887943
10
332.76365762222559
20
41.966973288875629
42
0.41421299676080059
10
340.26366509396269
20
49.466966277200328
42
0.41421356237309331
10
332.76365808229406
20
56.966973288869063
10
322.12992642260525
20
56.96697328887943
10
322.12992642261094
20
71.96697328887943
10
332.7636562524624
20
71.966973288874044
42
0.41421296659042312
10
340.26366509458029
20
79.466966875016624
42
0.4142135623730871
10
332.76365868072799
20
86.966973288868985
10
322.12992642261094
20
86.96697328887943
10
322.12992642260474
20
105.43397328887943
10
332.76365991940537
20
105.43397328887779
42
0.41421304074211246
10
340.26366509381944
20
112.93396510609504
42
0.41421356237310064
10
332.76365691104525
20
120.43397328886957
10
322.12992642260582
20
120.43397328887943
10
322.1299264226115
20
123.93394657775893
42
0.41421356237309193
10
317.12992642261145
20
128.93394657775889
10
294.49992642261037
20
128.93394657775897
10
294.4999264226106
20
139.56767988043094
42
0.4142133526899528
10
286.99992642261071
20
147.0676852497061
42
0.41421380745214248
10
279.49992642260997
20
139.567691525344
10
279.49992642261037
20
128.93394657775886
10
0
20
128.93394657775897
10
4.1078251911130792e-14
20
139.56767822811423
42
0.41421328816264641
10
-7.4999999999998215
20
147.06768524971591
42
0.41421330389777894
10
-15.000000000002833
20
139.56767863103511
10
-15
20
128.93394657775897
10
-45.129926422609614
20
128.93394657775895
42
0.41421356237309453
10
-50.129926422609614
20
123.93394657775893
10
-50.129926422607483
20
120.43397328887943
10
-60.763656911580888
20
120.43397328887976
42
0.41421324281587479
10
-68.263665094361102
20
112.93397328888005
42
0.41421336029941519
10
-60.76365991994173
20
105.43397328888236
10
-50.129926422608477
20
105.43397328887943
10
-50.129926422613593
20
86.96697328887943
10
-60.763658681184943
20
86.966973288879387
42
0.41421331189641697
10
-68.263665095044757
20
79.466973288879302
42
0.41421321706696201
10
-60.763656252919283
20
71.966973288876872
10
-50.129926422613593
20
71.966973288879444
10
-50.129926422608051
20
56.966973288879444
10
-60.763658082688401
20
56.966973288879458
42
0.41421328855028222
10
-68.263665094364057
20
49.466973288879444
42
0.41421327058353458
10
-60.763657622620002
20
41.966973288878961
10
-50.129926422608051
20
41.966973288879437
10
-50.129926422608051
20
23.499973288879442
10
-60.763659216147303
20
23.499973288879445
42
0.41421333281447392
10
-68.26366509436626
20
15.999973288879449
42
0.41421329273078228
10
-60.763658189738194
20
8.4999732888785253
10
-50.129926422608051
20
8.4999732888794384
10
-50.129926422609614
20
4.999999999999984
42
0.41421356237309515
10
-45.129926422609614
20
-1.5543122344752192e-14
10
-15
20
0
10
-15.000000000002842
20
-10.633732053276375
42
0.41421330389778216
10
-7.4999999999998588
20
-18.133738671957182
42
0.41421328816264602
10
4.4408920985006254e-15
20
-10.633731650355516
10
0
20
0
10
279.49992642261032
20
-8.4376949871511897e-14
10
279.4999264226106
20
-10.633744947586592
42
0.41421359776863603
10
286.99992105333371
20
-18.133738671950546
42
0.41421356237310103
10
294.49992642261316
20
-10.633733302673425
10
294.49992642261032
20
5.5511151231257827e-14
10
317.12992642260923
20
-3.9968028886505635e-14
42
0.41421356237309759
10
322.12992642260923
20
4.9999999999999671
0
ARC
5
101
100
AcDbEntity
8
0
100
AcDbCircle
10
51.696795776793678
20
115.35084262486015
30
0
40
1.5668693359808472
210
0
220
0
230
-1
100
AcDbArc
50
-180
51
0
0
LINE
5
102
100
AcDbEntity
8
0
100
AcDbLine
10
322.12992643948189
20
45.233842624857409
30
0
11
322.12992643948184
21
47.050103952901452
31
0
0
LWPOLYLINE
5
103
100
AcDbEntity
8
0
100
AcDbPolyline
90
4
70
1
43
0.0
10
289.41679575858308
20
-2.1323126588141664e-10
10
291.23305708649696
20
3.3986318047449096e-13
42
-1.0000003406146585
10
291.23305601936005
20
-3.1337386721596245
10
289.41679950784174
20
-3.1337386719517357
42
-1.0000011964164233
0
ARC
5
104
100
AcDbEntity
8
0
100
AcDbCircle
10
51.696795715363855
20
83.70010395290214
30
0
40
1.5668693359772945
210
0
220
0
230
-1
100
AcDbArc
50
0
51
180
0
LINE
5
105
100
AcDbEntity
8
0
100
AcDbLine
10
-53.263665051340332
20
75.233842624856763
30
0
11
-53.263665095048864
21
77.050103952902134
31
0
0
ARC
5
106
100
AcDbEntity
8
0
100
AcDbCircle
10
-323.69679577958613
20
117.16710395289809
30
0
40
1.5668693359814512
210
0
220
0
230
-1
100
AcDbArc
50
0
51
180
0
LWPOLYLINE
5
107
100
AcDbEntity
8
0
100
AcDbPolyline
90
4
70
1
43
0.0
10
325.26366510919473
20
13.583103952897986
10
325.26366510919524
20
11.76684262486088
42
-0.99999999999999989
10
322.12992643723231
20
11.766842624860699
10
322.1299264372318
20
13.583103952897847
42
-0.99999999999999989
0
LWPOLYLINE
5
108
100
AcDbEntity
8
0
100
AcDbPolyline
90
4
70
1
43
0.0
10
-11.733129597386128
20
-3.1337386719205811
42
-1.0000003402885551
10
-11.733130664272235
20
3.4996727737990341e-11
10
-9.9168693359759867
20
3.054324179169867e-11
42
-1.0000011964164233
10
-9.9168730852282394
20
-3.133738671920947
0
ARC
5
109
100
AcDbEntity
8
0
100
AcDbCircle
10
51.696795776242581
20
18.41684262486018
30
0
40
1.5668693536343881
210
0
220
0
230
-1
100
AcDbArc
50
-180
51
0
0
ARC
5
110
100
AcDbEntity
8
0
100
AcDbCircle
10
-323.69679575788643
20
81.883842624857394
30
0
40
1.5668693367049258
210
0
220
0
230
-1
100
AcDbArc
50
-180
51
0
0
LWPOLYLINE
5
111
100
AcDbEntity
8
0
100
AcDbPolyline
90
4
70
1
43
0.0
10
289.41679575858637
20
128.93394657787826
42
-1.0000011964164233
10
289.41679950783862
20
132.06768524982971
10
291.2330560194855
20
132.06768524970775
42
-1.000000340451646
10
291.23305708688252
20
128.93394657799541
0
LINE
5
112
100
AcDbEntity
8
0
100
AcDbLine
10
-50.129926440812618
20
117.1671039528986
30
0
11
-50.129926440812831
21
115.35084262486015
31
0
0
LWPOLYLINE
5
113
100
AcDbEntity
8
0
100
AcDbPolyline
90
4
70
1
43
0.0
10
284.58305708663448
20
-3.133738672159605
10
282.76679482174637
20
-3.1337386719508653
42
-0.9999997010469488
10
282.76679575858725
20
-2.0935447819780961e-10
10
284.58305708663454
20
-9.5479180117763462e-14
42
-0.99999999999999989
0
LWPOLYLINE
5
114
100
AcDbEntity
8
0
100
AcDbPolyline
90
4
70
1
43
0.0
10
-11.733129596749768
20
132.06768524967814
10
-9.9168730852315203
20
132.06768524967873
42
-1.000001196439622
10
-9.9168693360454441
20
128.933946577726
10
-11.733130664142088
20
128.9339465777218
42
-1.0000003405331619
0
LINE
5
115
100
AcDbEntity
8
0
100
AcDbLine
10
325.26366509397656
20
47.050103952901452
30
0
11
325.26366509397656
21
45.233842624857424
31
0
0
ARC
5
116
100
AcDbEntity
8
0
100
AcDbCircle
10
51.69679577624315
20
20.23310395289873
30
0
40
1.5668693359806696
210
0
220
0
230
-1
100
AcDbArc
50
0
51
180
0
LINE
5
117
100
AcDbEntity
8
0
100
AcDbLine
10
325.26366511556762
20
117.16710395289809
30
0
11
325.26366509383416
21
115.35084262486093
31
0
0
LINE
5
118
100
AcDbEntity
8
0
100
AcDbLine
10
-53.263665112223293
20
18.416842624860109
30
0
11
-53.263665112223819
21
20.23310395289873
31
0
0
LINE
5
119
100
AcDbEntity
8
0
100
AcDbLine
10
-50.129926422607774
20
13.583103952898831
30
0
11
-50.129926422607618
21
11.766842624860267
31
0
0
ARC
5
120
100
AcDbEntity
8
0
100
AcDbCircle
10
51.696795776242801
20
13.583103952898734
30
0
40
1.5668693181313387
210
0
220
0
230
-1
100
AcDbArc
50
0
51
180
0
LINE
5
121
100
AcDbEntity
8
0
100
AcDbLine
10
-50.129926422613593
20
77.050103952902134
30
0
11
-50.129926422613593
21
75.233842624856763
31
0
0
LINE
5
122
100
AcDbEntity
8
0
100
AcDbLine
10
322.12992644360475
20
115.35084262486106
30
0
11
322.12992644360469
21
117.16710395289809
31
0
0
LWPOLYLINE
5
123
100
AcDbEntity
8
0
100
AcDbPolyline
90
4
70
1
43
0.0
10
322.12992643948161
20
53.700103952901458
42
-0.99999999999999989
10
325.26366511143755
20
53.700103952901458
10
325.26366511143863
20
51.883842624857401
42
-0.99999999999999989
10
322.12992643948269
20
51.883842624857401
0
ARC
5
124
100
AcDbEntity
8
0
100
AcDbCircle
10
-323.6967957754598
20
47.050103952901452
30
0
40
1.5668693359779695
210
0
220
0
230
-1
100
AcDbArc
50
0
51
180
0
LINE
5
125
100
AcDbEntity
8
0
100
AcDbLine
10
-50.129926422613593
20
83.70010395290214
30
0
11
-50.129926422613593
21
81.883842624856783
31
0
0
LINE
5
126
100
AcDbEntity
8
0
100
AcDbLine
10
322.12992642260497
20
108.7008426248611
30
0
11
322.12992642260508
21
110.5171039528981
31
0
0
LINE
5
127
100
AcDbEntity
8
0
100
AcDbLine
10
-50.129926422608349
20
20.233103952898826
30
0
11
-50.129926422608193
21
18.41684262486018
31
0
0
LINE
5
128
100
AcDbEntity
8
0
100
AcDbLine
10
-53.263665112373886
20
51.883842624856776
30
0
11
-53.263665094371362
21
53.700103952902118
31
0
0
ARC
5
129
100
AcDbEntity
8
0
100
AcDbCircle
10
-323.6967957754598
20
45.233842624857424
30
0
40
1.566869318516666
210
0
220
0
230
-1
100
AcDbArc
50
-180
51
0
0
ARC
5
130
100
AcDbEntity
8
0
100
AcDbCircle
10
-323.69679575788689
20
83.700103952901401
30
0
40
1.5668693352760243
210
0
220
0
230
-1
100
AcDbArc
50
0
51
180
0
LINE
5
131
100
AcDbEntity
8
0
100
AcDbLine
10
-50.129926422613593
20
53.700103952902118
30
0
11
-50.129926422613593
21
51.883842624856776
31
0
0
LINE
5
132
100
AcDbEntity
8
0
100
AcDbLine
10
-53.263665051340332
20
81.883842624856783
30
0
11
-53.26366505134115
21
83.70010395290214
31
0
0
ARC
5
133
100
AcDbEntity
8
0
100
AcDbCircle
10
51.696795715362995
20
81.883842624856783
30
0
40
1.5668692927494021
210
0
220
0
230
-1
100
AcDbArc
50
-180
51
0
0
LINE
5
134
100
AcDbEntity
8
0
100
AcDbLine
10
322.12992642118149
20
81.883842624857394
30
0
11
322.12992642261088
21
83.700103952901401
31
0
0
ARC
5
135
100
AcDbEntity
8
0
100
AcDbCircle
10
51.696795715362995
20
75.233842624856763
30
0
40
1.5668692927494021
210
0
220
0
230
-1
100
AcDbArc
50
-180
51
0
0
ARC
5
136
100
AcDbEntity
8
0
100
AcDbCircle
10
51.69679577624251
20
11.766842624860217
30
0
40
1.5668693536348854
210
0
220
0
230
-1
100
AcDbArc
50
-180
51
0
0
LINE
5
137
100
AcDbEntity
8
0
100
AcDbLine
10
-53.263665112223357
20
11.766842624860161
30
0
11
-53.26366509437414
21
13.583103952898734
31
0
0
ARC
5
138
100
AcDbEntity
8
0
100
AcDbCircle
10
-323.69679577958618
20
115.35084262486096
30
0
40
1.5668693142479384
210
0
220
0
230
-1
100
AcDbArc
50
-180
51
0
0
ARC
5
139
100
AcDbEntity
8
0
100
AcDbCircle
10
51.696795715363855
20
77.050103952902134
30
0
40
1.5668693796850164
210
0
220
0
230
-1
100
AcDbArc
50
0
51
180
0
LWPOLYLINE
5
140
100
AcDbEntity
8
0
100
AcDbPolyline
90
4
70
1
43
0.0
10
-3.2668683988450962
20
132.06768524967791
42
-0.99999970095412083
10
-3.2668693359768679
20
128.93394657772214
10
-5.0831306640242158
20
128.93394657772217
42
-0.99999999999999989
10
-5.0831306640241891
20
132.06768524967814
0
ARC
5
141
100
AcDbEntity
8
0
100
AcDbCircle
10
-323.69679577958601
20
108.70084262486101
30
0
40
1.5668693142478674
210
0
220
0
230
-1
100
AcDbArc
50
-180
51
0
0
ARC
5
142
100
AcDbEntity
8
0
100
AcDbCircle
10
-323.6967957732133
20
20.233103952897853
30
0
40
1.5668693506084708
210
0
220
0
230
-1
100
AcDbArc
50
0
51
180
0
LWPOLYLINE
5
143
100
AcDbEntity
8
0
100
AcDbPolyline
90
4
70
1
43
0.0
10
-3.2668683986705287
20
-3.1337386719209648
10
-5.0831306640241891
20
-3.1337386719577265
42
-0.99999999999999989
10
-5.0831306640241891
20
7.1753714081523867e-11
10
-3.2668693361514656
20
3.5272273266898767e-11
42
-0.99999970095412083
0
CIRCLE
5
144
100
AcDbEntity
8
0
100
AcDbCircle
10
60.763657622620002
20
49.466980760626733
30
0
40
1.25
210
0
220
0
230
-1
0
LWPOLYLINE
5
145
100
AcDbEntity
8
0
100
AcDbPolyline
90
8
70
1
43
0.0
10
288.22992642261318
20
21.699999999999925
10
304.8299264226132
20
21.699999999999903
42
-0.41421356237308754
10
306.8299264226132
20
19.699999999999889
10
306.8299264226132
20
11.999999999999904
42
-0.41421356237309698
10
304.8299264226132
20
9.9999999999999112
10
288.22992642261318
20
9.9999999999999041
42
-0.41421356237309664
10
286.22992642261318
20
11.999999999999908
10
286.22992642261318
20
19.69999999999991
42
-0.41421356237309892
0
CIRCLE
5
146
100
AcDbEntity
8
0
100
AcDbCircle
10
60.763658681184864
20
79.466966875016752
30
0
40
1.25
210
0
220
0
230
-1
0
ARC
5
147
100
AcDbEntity
8
0
100
AcDbCircle
10
51.696795776397764
20
53.700103952902118
30
0
40
1.5668693179735982
210
0
220
0
230
-1
100
AcDbArc
50
0
51
180
0
CIRCLE
5
148
100
AcDbEntity
8
0
100
AcDbCircle
10
-332.76365921582976
20
15.999967410658044
30
0
40
1.25
210
0
220
0
230
-1
0
ARC
5
149
100
AcDbEntity
8
0
100
AcDbCircle
10
51.696795776791831
20
110.51710395289871
30
0
40
1.5668693175788917
210
0
220
0
230
-1
100
AcDbArc
50
0
51
180
0
CIRCLE
5
150
100
AcDbEntity
8
0
100
AcDbCircle
10
-332.76365991940543
20
112.93397846330372
30
0
40
1.25
210
0
220
0
230
-1
0
CIRCLE
5
151
100
AcDbEntity
8
0
100
AcDbCircle
10
-332.76365868072793
20
79.466966875016695
30
0
40
1.25
210
0
220
0
230
-1
0
LWPOLYLINE
5
152
100
AcDbEntity
8
0
100
AcDbPolyline
90
4
70
1
43
0.0
10
282.76679575876187
20
128.9339465777586
42
-0.99999970095412083
10
282.76679482128094
20
132.06768524994465
10
284.58305708663465
20
132.06768524970815
42
-0.99999999999999989
10
284.58305708663448
20
128.93394657799544
0
CIRCLE
5
153
100
AcDbEntity
8
0
100
AcDbCircle
10
-310.52992642261319
20
15.849999999999875
30
0
40
1.6000000000000014
210
0
220
0
230
-1
0
ARC
5
154
100
AcDbEntity
8
0
100
AcDbCircle
10
51.696795776396563
20
51.883842624856776
30
0
40
1.5668693537829625
210
0
220
0
230
-1
100
AcDbArc
50
-180
51
0
0
LINE
5
155
100
AcDbEntity
8
0
100
AcDbLine
10
325.2636651091949
20
20.233103952897924
30
0
11
325.26366509405653
21
18.416842624860926
31
0
0
CIRCLE
5
156
100
AcDbEntity
8
0
100
AcDbCircle
10
-332.76365762222559
20
49.466980760626612
30
0
40
1.25
210
0
220
0
230
-1
0
CIRCLE
5
157
100
AcDbEntity
8
0
100
AcDbCircle
10
-286.99992105333365
20
-10.633733302673621
30
0
40
1.25
210
0
220
0
230
-1
0
LINE
5
158
100
AcDbEntity
8
0
100
AcDbLine
10
-50.129926422613593
20
47.05010395290212
30
0
11
-50.129926422613593
21
45.233842624856742
31
0
0
ARC
5
159
100
AcDbEntity
8
0
100
AcDbCircle
10
-323.69679577321415
20
18.416842624860841
30
0
40
1.5668693208424145
210
0
220
0
230
-1
100
AcDbArc
50
-180
51
0
0
LINE
5
160
100
AcDbEntity
8
0
100
AcDbLine
10
-53.263665094370793
20
108.70084262486017
30
0
11
-53.263665094370722
21
110.51710395289871
31
0
0
LWPOLYLINE
5
161
100
AcDbEntity
8
0
100
AcDbPolyline
90
4
70
1
43
0.0
10
322.12992642118081
20
75.233842624857374
10
322.12992642190903
20
77.050103952901338
42
-0.99999999999999989
10
325.26366509386486
20
77.050103952901395
10
325.26366509459137
20
75.23384262485736
42
-0.99999999999999989
0
ARC
5
162
100
AcDbEntity
8
0
100
AcDbCircle
10
51.696795776397764
20
47.05010395290212
30
0
40
1.5668693179735982
210
0
220
0
230
-1
100
AcDbArc
50
0
51
180
0
LINE
5
163
100
AcDbEntity
8
0
100
AcDbLine
10
325.26366511556722
20
110.51710395289803
30
0
11
325.26366509383388
21
108.70084262486101
31
0
0
LINE
5
164
100
AcDbEntity
8
0
100
AcDbLine
10
-53.263665112373573
20
45.233842624856742
30
0
11
-53.263665094371362
21
47.05010395290212
31
0
0
CIRCLE
5
165
100
AcDbEntity
8
0
100
AcDbCircle
10
-282.52992642261319
20
15.849999999999898
30
0
40
1.6000000000000014
210
0
220
0
230
-1
0
ARC
5
166
100
AcDbEntity
8
0
100
AcDbCircle
10
51.696795776793394
20
117.16710395289866
30
0
40
1.5668693175771864
210
0
220
0
230
-1
100
AcDbArc
50
0
51
180
0
LINE
5
167
100
AcDbEntity
8
0
100
AcDbLine
10
325.26366509459143
20
83.700103952901372
30
0
11
325.26366509459137
21
81.883842624857394
31
0
0
LINE
5
168
100
AcDbEntity
8
0
100
AcDbLine
10
322.12992642260508
20
18.416842624860745
30
0
11
322.1299264226048
21
20.233103952897853
31
0
0
ARC
5
169
100
AcDbEntity
8
0
100
AcDbCircle
10
-323.69679577958578
20
110.51710395289804
30
0
40
1.5668693569807601
210
0
220
0
230
-1
100
AcDbArc
50
0
51
180
0
ARC
5
170
100
AcDbEntity
8
0
100
AcDbCircle
10
51.696795776396208
20
45.233842624856742
30
0
40
1.5668693537826073
210
0
220
0
230
-1
100
AcDbArc
50
-180
51
0
0
ARC
5
171
100
AcDbEntity
8
0
100
AcDbCircle
10
51.696795776794531
20
108.7008426248601
30
0
40
1.5668693541863377
210
0
220
0
230
-1
100
AcDbArc
50
-180
51
0
0
LINE
5
172
100
AcDbEntity
8
0
100
AcDbLine
10
-53.263665094370651
20
115.35084262486016
30
0
11
-53.26366509437058
21
117.16710395289866
31
0
0
LINE
5
173
100
AcDbEntity
8
0
100
AcDbLine
10
-50.12992644081109
20
110.51710395289862
30
0
11
-50.129926422608193
21
108.7008426248601
31
0
0
CIRCLE
5
174
100
AcDbEntity
8
0
100
AcDbCircle
10
7.4999933813190722
20
-10.633732053276336
30
0
40
1.25
210
0
220
0
230
-1
0
CIRCLE
5
175
100
AcDbEntity
8
0
100
AcDbCircle
10
60.763659216147303
20
15.999967410658185
30
0
40
1.25
210
0
220
0
230
-1
0
CIRCLE
5
176
100
AcDbEntity
8
0
100
AcDbCircle
10
60.763659919941389
20
112.93397846330386
30
0
40
1.25
210
0
220
0
230
-1
0
CIRCLE
5
177
100
AcDbEntity
8
0
100
AcDbCircle
10
-286.99992105333365
20
139.56767988043109
30
0
40
1.25
210
0
220
0
230
-1
0
CIRCLE
5
178
100
AcDbEntity
8
0
100
AcDbCircle
10
7.4999933813190367
20
139.56767863103505
30
0
40
1.25
210
0
220
0
230
-1
0
ENDSEC
0
SECTION
2
OBJECTS
0
DICTIONARY
5
C
100
AcDbDictionary
3
ACAD_GROUP
350
D
3
ACAD_MLINESTYLE
350
17
0
DICTIONARY
5
D
100
AcDbDictionary
0
DICTIONARY
5
1A
330
C
100
AcDbDictionary
0
DICTIONARY
5
17
100
AcDbDictionary
0
ENDSEC
0
EOF
