0
SECTION
2
HEADER
9
$INSUNITS
70
4
9
$ACADVER
1
AC1014
9
$HANDSEED
5
FFFF
0
ENDSEC
0
SECTION
2
TABLES
0
TABLE
2
VPORT
5
8
100
AcDbSymbolTable
0
ENDTAB
0
TABLE
2
LTYPE
5
5
100
AcDbSymbolTable
0
LTYPE
5
14
100
AcDbSymbolTableRecord
100
AcDbLinetypeTableRecord
2
BYBLOCK
70
0
0
LTYPE
5
15
100
AcDbSymbolTableRecord
100
AcDbLinetypeTableRecord
2
BYLAYER
70
0
0
ENDTAB
0
TABLE
2
LAYER
5
2
100
AcDbSymbolTable
70
2
0
LAYER
5
50
100
AcDbSymbolTableRecord
100
AcDbLayerTableRecord
2
0
70
0
6
CONTINUOUS
0
ENDTAB
0
TABLE
2
STYLE
5
3
100
AcDbSymbolTable
70
1
0
STYLE
5
11
100
AcDbSymbolTableRecord
100
AcDbTextStyleTableRecord
2
STANDARD
70
0
0
ENDTAB
0
TABLE
2
VIEW
5
6
100
AcDbSymbolTable
70
0
0
ENDTAB
0
TABLE
2
UCS
5
7
100
AcDbSymbolTable
70
0
0
ENDTAB
0
TABLE
2
APPID
5
9
100
AcDbSymbolTable
70
2
0
APPID
5
12
100
AcDbSymbolTableRecord
100
AcDbRegAppTableRecord
2
ACAD
70
0
0
ENDTAB
0
TABLE
2
DIMSTYLE
5
A
100
AcDbSymbolTable
70
1
0
ENDTAB
0
TABLE
2
BLOCK_RECORD
5
1
100
AcDbSymbolTable
70
1
0
BLOCK_RECORD
5
1F
100
AcDbSymbolTableRecord
100
AcDbBlockTableRecord
2
*MODEL_SPACE
0
BLOCK_RECORD
5
1B
100
AcDbSymbolTableRecord
100
AcDbBlockTableRecord
2
*PAPER_SPACE
0
ENDTAB
0
ENDSEC
0
SECTION
2
BLOCKS
0
BLOCK
5
20
100
AcDbEntity
100
AcDbBlockBegin
2
*MODEL_SPACE
0
ENDBLK
5
21
100
AcDbEntity
100
AcDbBlockEnd
0
BLOCK
5
1C
100
AcDbEntity
100
AcDbBlockBegin
2
*PAPER_SPACE
0
ENDBLK
5
1D
100
AcDbEntity
100
AcDbBlockEnd
0
ENDSEC
0
SECTION
2
ENTITIES
0
LWPOLYLINE
5
100
100
AcDbEntity
8
0
100
AcDbPolyline
90
8
70
1
43
0.0
10
510.46127676689827
20
106.99999999999996
10
510.46127676689832
20
2.9999999999999187
42
-0.41421356237309093
10
507.46127676689838
20
-3.3861802251067274e-14
10
2.6696374671899074e-16
20
0
42
-0.41421356237309515
10
-3.0000000000000027
20
3.0000000000000071
10
-3.0000000000000124
20
106.99999999999996
42
-0.41421356237309559
10
0
20
110
10
507.46127676689832
20
109.99999999999993
42
-0.41421356237308116
0
LINE
5
101
100
AcDbEntity
8
0
100
AcDbLine
10
62.966973288881213
20
17.433130664022055
30
0
11
62.966973288880737
21
8.5668693367551096
31
0
0
LWPOLYLINE
5
102
100
AcDbEntity
8
0
100
AcDbPolyline
90
4
70
1
43
0.0
10
444.49430347713928
20
73.433130664021959
42
0.99999999999999989
10
441.3605648060539
20
73.433130664021974
10
441.36056480605373
20
64.566869184664426
42
0.99999995171472023
10
444.49430347713104
20
64.566869335977842
0
CIRCLE
5
103
100
AcDbEntity
8
0
100
AcDbCircle
10
-397.23063176476103
20
96.500006618679421
30
0
40
1.6499999999999917
210
0
220
0
230
-1
0
CIRCLE
5
104
100
AcDbEntity
8
0
100
AcDbCircle
10
-102.73071733010843
20
96.500005369266134
30
0
40
1.6499999999999917
210
0
220
0
230
-1
0
LWPOLYLINE
5
105
100
AcDbEntity
8
0
100
AcDbPolyline
90
4
70
1
43
0.0
10
441.36056480517573
20
22.566869182873631
10
441.3605648051813
20
31.433130664022002
42
-0.99999999999999989
10
444.49430347713695
20
31.433130664022002
10
444.49430347713127
20
22.566869335977856
42
-0.99999995114327689
0
LWPOLYLINE
5
106
100
AcDbEntity
8
0
100
AcDbPolyline
90
4
70
1
43
0.0
10
62.966973288880794
20
31.433130664022055
10
62.966973288880411
20
22.566869336755101
42
0.99999995114327689
10
66.100711960836207
20
22.566869182096486
10
66.100711960836207
20
31.433130664022073
42
0.99999999999999989
0
LWPOLYLINE
5
107
100
AcDbEntity
8
0
100
AcDbPolyline
90
4
70
1
43
0.0
10
444.49430347801888
20
59.433130664022002
42
0.99999999999999989
10
441.36056480518386
20
59.433130664021981
10
441.36056480518135
20
50.566869182873646
42
0.99999995114327689
10
444.49430347801894
20
50.566869335977827
0
LWPOLYLINE
5
108
100
AcDbEntity
8
0
100
AcDbPolyline
90
4
70
1
43
0.0
10
444.4943034771369
20
36.566869335977927
42
-0.99999995114327689
10
441.36056480518118
20
36.566869182873639
10
441.36056480518221
20
45.433130664021874
42
-0.99999999999999989
10
444.49430347713803
20
45.433130664021995
0
ARC
5
109
100
AcDbEntity
8
0
100
AcDbCircle
10
-64.533842624856831
20
73.433130664022073
30
0
40
1.566869335977934
210
0
220
0
230
-1
100
AcDbArc
50
0
51
180
0
ARC
5
110
100
AcDbEntity
8
0
100
AcDbCircle
10
-64.533842624859147
20
17.433130664022062
30
0
40
1.566869335977934
210
-0
220
0
230
-1
100
AcDbArc
50
0
51
180
0
ARC
5
111
100
AcDbEntity
8
0
100
AcDbCircle
10
-64.533842624855652
20
87.433130664022073
30
0
40
1.566869335977934
210
0
220
0
230
-1
100
AcDbArc
50
0
51
180
0
LINE
5
112
100
AcDbEntity
8
0
100
AcDbLine
10
66.100711960835511
20
50.566869182096504
30
0
11
66.10071196083517
21
59.43313066402208
31
0
0
LWPOLYLINE
5
113
100
AcDbEntity
8
0
100
AcDbPolyline
90
4
70
1
43
0.0
10
441.36056480605475
20
101.43313066402195
10
441.36056480605498
20
92.566869184664299
42
0.99999995171472023
10
444.49430347713695
20
92.566869335977785
10
444.49430347713957
20
101.43313066402199
42
0.99999999999999989
0
ARC
5
114
100
AcDbEntity
8
0
100
AcDbCircle
10
-64.533842624857002
20
64.566869335977913
30
0
40
1.5668693359779238
210
0
220
0
230
-1
100
AcDbArc
50
-179.99999440143179
51
0
0
LWPOLYLINE
5
115
100
AcDbEntity
8
0
100
AcDbPolyline
90
4
70
1
43
0.0
10
441.36056480518272
20
87.433130664021959
42
-0.99999999999999989
10
444.49430347713866
20
87.433130664021931
10
444.49430347713826
20
78.5668693359777
42
-0.99999995114327689
10
441.36056480518249
20
78.566869182873702
0
LINE
5
116
100
AcDbEntity
8
0
100
AcDbLine
10
62.966973288878904
20
73.433130664022073
30
0
11
62.966973288879082
21
64.566869335977913
31
0
0
ARC
5
117
100
AcDbEntity
8
0
100
AcDbCircle
10
-64.533842624858949
20
8.5668693359779127
30
0
40
1.5668693359777106
210
0
220
0
230
-1
100
AcDbArc
50
-179.99999440143179
51
0
0
LINE
5
118
100
AcDbEntity
8
0
100
AcDbLine
10
444.49430347801751
20
8.5668693359778292
30
0
11
444.49430347801751
21
17.433130664021988
31
0
0
CIRCLE
5
119
100
AcDbEntity
8
0
100
AcDbCircle
10
-45.467005878221258
20
96.500005878204732
30
0
40
1.6499999999999917
210
0
220
0
230
-1
0
ARC
5
120
100
AcDbEntity
8
0
100
AcDbCircle
10
-64.533842624856632
20
78.566869335977913
30
0
40
1.5668693359779238
210
0
220
0
230
-1
100
AcDbArc
50
-179.99999440143179
51
0
0
LINE
5
121
100
AcDbEntity
8
0
100
AcDbLine
10
62.966973288877725
20
87.433130664022073
30
0
11
62.966973288878705
21
78.566869335977913
31
0
0
CIRCLE
5
122
100
AcDbEntity
8
0
100
AcDbCircle
10
-11.999999999999964
20
12.49999999999824
30
0
40
1.6500000000000004
210
0
220
0
230
-1
0
ARC
5
123
100
AcDbEntity
8
0
100
AcDbCircle
10
-64.533842624857243
20
59.43313066402208
30
0
40
1.566869335977934
210
0
220
0
230
-1
100
AcDbArc
50
0
51
180
0
LINE
5
124
100
AcDbEntity
8
0
100
AcDbLine
10
441.36056480518226
20
17.433130664021974
30
0
11
441.3605648051751
21
8.5668691846643803
31
0
0
CIRCLE
5
125
100
AcDbEntity
8
0
100
AcDbCircle
10
-495.46128423864565
20
96.50000747175504
30
0
40
1.6500000000000092
210
0
220
0
230
-1
0
ARC
5
126
100
AcDbEntity
8
0
100
AcDbCircle
10
-442.92743414116012
20
17.433130664021974
30
0
40
1.5668693359778985
210
0
220
0
230
-1
100
AcDbArc
50
0
51
180
0
LINE
5
127
100
AcDbEntity
8
0
100
AcDbLine
10
62.966973288879309
20
59.43313066402208
30
0
11
62.966973288879672
21
50.566869336755111
31
0
0
CIRCLE
5
128
100
AcDbEntity
8
0
100
AcDbCircle
10
-397.23988487846339
20
34.490753504989371
30
0
40
1.6499999999999917
210
0
220
0
230
-1
0
ARC
5
129
100
AcDbEntity
8
0
100
AcDbCircle
10
-64.533842624858522
20
36.566869335977906
30
0
40
1.5668693359779238
210
0
220
0
230
-1
100
AcDbArc
50
-179.99999440143179
51
0
0
LINE
5
130
100
AcDbEntity
8
0
100
AcDbLine
10
66.100711960834929
20
64.566869182873717
30
0
11
66.100711960834772
21
73.433130664022073
31
0
0
LINE
5
131
100
AcDbEntity
8
0
100
AcDbLine
10
66.100711960834545
20
78.566869182873717
30
0
11
66.100711960833593
21
87.433130664022073
31
0
0
LINE
5
132
100
AcDbEntity
8
0
100
AcDbLine
10
66.100711960836648
20
8.5668691828737096
30
0
11
66.100711960837089
21
17.433130664022062
31
0
0
CIRCLE
5
133
100
AcDbEntity
8
0
100
AcDbCircle
10
-11.999992528252712
20
96.50000747173074
30
0
40
1.6500000000000092
210
0
220
0
230
-1
0
LWPOLYLINE
5
134
100
AcDbEntity
8
0
100
AcDbPolyline
90
4
70
1
43
0.0
10
62.966973288878059
20
92.566869336755047
42
0.99999995114327689
10
66.100711960834943
20
92.566869182096525
10
66.100711960833991
20
101.43313066402203
42
0.99999999999999989
10
62.96697328887803
20
101.43313066402207
0
ARC
5
135
100
AcDbEntity
8
0
100
AcDbCircle
10
-64.533842624857598
20
50.566869335977927
30
0
40
1.5668693359779238
210
0
220
0
230
-1
100
AcDbArc
50
-179.99999440143179
51
0
0
ARC
5
136
100
AcDbEntity
8
0
100
AcDbCircle
10
-442.92743414115301
20
8.5668693359778363
30
0
40
1.5668693368645137
210
0
220
0
230
-1
100
AcDbArc
50
180
51
359.99999446691442
0
CIRCLE
5
137
100
AcDbEntity
8
0
100
AcDbCircle
10
-45.466973288879402
20
12.499999999998241
30
0
40
1.6500000000000004
210
0
220
0
230
-1
0
ARC
5
138
100
AcDbEntity
8
0
100
AcDbCircle
10
-64.533842624856689
20
45.433130664022073
30
0
40
1.566869335977934
210
0
220
0
230
-1
100
AcDbArc
50
0
51
180
0
CIRCLE
5
139
100
AcDbEntity
8
0
100
AcDbCircle
10
-461.99427088867697
20
96.500005878229089
30
0
40
1.6500000000000092
210
0
220
0
230
-1
0
LINE
5
140
100
AcDbEntity
8
0
100
AcDbLine
10
66.100711960836435
20
36.566869182873702
30
0
11
66.10071196083463
21
45.433130664022073
31
0
0
LINE
5
141
100
AcDbEntity
8
0
100
AcDbLine
10
62.966973288878762
20
45.433130664022073
30
0
11
62.966973288880588
21
36.566869335977906
31
0
0
CIRCLE
5
142
100
AcDbEntity
8
0
100
AcDbCircle
10
-495.46127676689832
20
34.500000000010303
30
0
40
1.6500000000000004
210
0
220
0
230
-1
0
CIRCLE
5
143
100
AcDbEntity
8
0
100
AcDbCircle
10
-157.23063175751918
20
34.499993374076688
30
0
40
1.6499999999999917
210
0
220
0
230
-1
0
CIRCLE
5
144
100
AcDbEntity
8
0
100
AcDbCircle
10
-461.99430347801894
20
34.500000000010324
30
0
40
1.6500000000000004
210
0
220
0
230
-1
0
ENDSEC
0
SECTION
2
OBJECTS
0
DICTIONARY
5
C
100
AcDbDictionary
3
ACAD_GROUP
350
D
3
ACAD_MLINESTYLE
350
17
0
DICTIONARY
5
D
100
AcDbDictionary
0
DICTIONARY
5
1A
330
C
100
AcDbDictionary
0
DICTIONARY
5
17
100
AcDbDictionary
0
ENDSEC
0
EOF
