0
SECTION
2
HEADER
9
$INSUNITS
70
4
9
$ACADVER
1
AC1014
9
$HANDSEED
5
FFFF
0
ENDSEC
0
SECTION
2
TABLES
0
TABLE
2
VPORT
5
8
100
AcDbSymbolTable
0
ENDTAB
0
TABLE
2
LTYPE
5
5
100
AcDbSymbolTable
0
LTYPE
5
14
100
AcDbSymbolTableRecord
100
AcDbLinetypeTableRecord
2
BYBLOCK
70
0
0
LTYPE
5
15
100
AcDbSymbolTableRecord
100
AcDbLinetypeTableRecord
2
BYLAYER
70
0
0
ENDTAB
0
TABLE
2
LAYER
5
2
100
AcDbSymbolTable
70
2
0
LAYER
5
50
100
AcDbSymbolTableRecord
100
AcDbLayerTableRecord
2
0
70
0
6
CONTINUOUS
0
ENDTAB
0
TABLE
2
STYLE
5
3
100
AcDbSymbolTable
70
1
0
STYLE
5
11
100
AcDbSymbolTableRecord
100
AcDbTextStyleTableRecord
2
STANDARD
70
0
0
ENDTAB
0
TABLE
2
VIEW
5
6
100
AcDbSymbolTable
70
0
0
ENDTAB
0
TABLE
2
UCS
5
7
100
AcDbSymbolTable
70
0
0
ENDTAB
0
TABLE
2
APPID
5
9
100
AcDbSymbolTable
70
2
0
APPID
5
12
100
AcDbSymbolTableRecord
100
AcDbRegAppTableRecord
2
ACAD
70
0
0
ENDTAB
0
TABLE
2
DIMSTYLE
5
A
100
AcDbSymbolTable
70
1
0
ENDTAB
0
TABLE
2
BLOCK_RECORD
5
1
100
AcDbSymbolTable
70
1
0
BLOCK_RECORD
5
1F
100
AcDbSymbolTableRecord
100
AcDbBlockTableRecord
2
*MODEL_SPACE
0
BLOCK_RECORD
5
1B
100
AcDbSymbolTableRecord
100
AcDbBlockTableRecord
2
*PAPER_SPACE
0
ENDTAB
0
ENDSEC
0
SECTION
2
BLOCKS
0
BLOCK
5
20
100
AcDbEntity
100
AcDbBlockBegin
2
*MODEL_SPACE
0
ENDBLK
5
21
100
AcDbEntity
100
AcDbBlockEnd
0
BLOCK
5
1C
100
AcDbEntity
100
AcDbBlockBegin
2
*PAPER_SPACE
0
ENDBLK
5
1D
100
AcDbEntity
100
AcDbBlockEnd
0
ENDSEC
0
SECTION
2
ENTITIES
0
LWPOLYLINE
5
100
100
AcDbEntity
8
0
100
AcDbPolyline
90
76
70
1
43
0.0
10
-45.129926422609302
20
0
10
-15
20
0
10
-15.000000000000002
20
-8.6337384462609066
42
0.41421355355915734
10
-7.5
20
-16.133738671955932
42
0.41385295507059783
10
5.6928240177445125e-06
20
-8.6244921769363252
10
0
20
0
10
225
20
0
10
225
20
-8.633732046028781
42
0.41421330361499176
10
232.5
20
-16.133738671952976
42
0.4142133449922874
10
240.00000000000199
20
-8.6337331055675968
10
240
20
0
10
268.62992642260923
20
-2.4424906541753444e-14
42
0.41421356237309231
10
273.62992642260923
20
5
42
-0.99999999999999989
10
276.76366509456466
20
5
42
0.4142135623730861
10
281.76366509456506
20
0
10
293.26366509456506
20
1.1102230246251565e-14
42
0.41421356237309542
10
298.26366509456511
20
5.0000000000000178
42
-0.99999999999999989
10
301.39740376651724
20
5
42
0.41421356237309004
10
306.39740376652105
20
-3.907985046680551e-12
10
340.39740376652105
20
4.8849813083506888e-14
42
0.41421384312898119
10
345.39740376651878
20
5.0000047928022253
10
345.39740376652105
20
8.4999999999999964
10
358.0311424384779
20
8.4999999999999254
42
0.99999999999999989
10
358.03114243847801
20
23.5
10
345.39740376652105
20
23.499999999999975
10
345.39740376652105
20
41.966973288879437
10
358.03114243847801
20
41.966973288879466
42
0.99999999999999989
10
358.03114243847801
20
56.966973288879466
10
345.39740376652105
20
56.96697328887965
10
345.39740376652105
20
71.966973288879231
10
358.03114243847801
20
71.96697328887916
42
0.99999999999999989
10
358.03114243847801
20
86.966973288879757
10
345.39740376652105
20
86.966973288886763
10
345.39740376652105
20
105.43394657775892
10
358.0311424384779
20
105.43394657775892
42
0.99999999999999989
10
358.0311424384779
20
120.43394657775892
10
345.39740376652105
20
120.43394657775892
10
345.39740376652105
20
123.933946577759
42
0.41421356237309609
10
340.39740376652099
20
128.93394657775897
10
306.39740376652105
20
128.93394657775897
42
0.41421356237309814
10
301.39740376652111
20
123.93394657775893
42
-0.99999999999999989
10
298.26366509456136
20
123.93394657775893
42
0.41421356237309503
10
293.26366509456506
20
128.93394657775897
10
281.76366509456506
20
128.93394657775897
42
0.41421356237309814
10
276.76366509456506
20
123.93394657775893
42
-0.99999999999999989
10
273.62992642260883
20
123.93394657775893
42
0.41421356237309609
10
268.62992642260923
20
128.93394657775897
10
240
20
128.93394657775897
10
240.00000000000202
20
137.5676796833265
42
0.41421356237309087
10
232.49999443361168
20
145.0676852497169
42
0.41421308623425551
10
225
20
137.56767862378769
10
225
20
128.93394657775897
10
0
20
128.93394657775897
10
5.6928240210751824e-06
20
137.55843875469526
42
0.41385295507059655
10
-7.4999999999999911
20
145.06768524971488
42
0.41421355355915734
10
-15.000000000000007
20
137.56768502401982
10
-15
20
128.93394657775897
10
-45.129926422609266
20
128.933946577759
42
0.41421356237309553
10
-50.129926422609266
20
123.93394657775893
10
-50.129926422609302
20
120.43394657775892
10
-58.763665094583253
20
120.43394657775892
42
0.99999999999999989
10
-58.763665094583253
20
105.43394657775892
10
-50.129926422609302
20
105.43394657775892
10
-50.129926422609302
20
86.96697328887943
10
-58.763665094583253
20
86.966973288879487
42
0.99999999999999989
10
-58.763665094583253
20
71.966973288879444
10
-50.129926422609302
20
71.966973288879473
10
-50.129926422609302
20
56.966973288879466
10
-58.763665094583253
20
56.966973288879473
42
0.99999999999999989
10
-58.763665094583253
20
41.966973288879458
10
-50.129926422609302
20
41.966973288879437
10
-50.129926422609302
20
23.499999999999975
10
-58.763665094583253
20
23.5
42
0.99999999999999989
10
-58.763665094583253
20
8.4999999999999964
10
-50.129926422609302
20
8.4999999999999609
10
-50.129926422609316
20
5.0000000000000018
42
0.41421356237309581
0
LWPOLYLINE
5
101
100
AcDbEntity
8
0
100
AcDbPolyline
90
4
70
1
43
0.0
10
345.39740376649439
20
53.700103952901671
10
345.39740376649439
20
51.883842624857401
42
0.99999999999999989
10
348.53114243847779
20
51.883842624857472
10
348.53114243847807
20
53.700103952901586
42
0.99999999999999989
0
LWPOLYLINE
5
102
100
AcDbEntity
8
0
100
AcDbPolyline
90
4
70
1
43
0.0
10
348.53114243845039
20
45.233842624857388
10
348.53114243845022
20
47.050103952901608
42
0.99999999999999989
10
345.39740376652128
20
47.05010395290163
10
345.39740376652105
20
45.233842624857459
42
0.99999999999999989
0
LWPOLYLINE
5
103
100
AcDbEntity
8
0
100
AcDbPolyline
90
4
70
1
43
0.0
10
-50.129926420970641
20
83.7001039529015
10
-50.129926420970463
20
81.883842624857266
42
-0.99999999999999989
10
-53.263665092926331
20
81.883842624857266
10
-53.263665092926509
20
83.7001039529015
42
-0.99999999999999989
0
LINE
5
104
100
AcDbEntity
8
0
100
AcDbLine
10
-50.129926420970364
20
108.70081591373683
30
0
11
-50.129926420969042
21
110.517077241781
31
0
0
LINE
5
105
100
AcDbEntity
8
0
100
AcDbLine
10
-50.129926422609302
20
18.416869335977907
30
0
11
-50.129926422609302
21
20.233130664022077
31
0
0
ARC
5
106
100
AcDbEntity
8
0
100
AcDbCircle
10
51.696795756948397
20
20.23313066402207
30
0
40
1.5668693359778985
210
0
220
0
230
-1
100
AcDbArc
50
0
51
180
0
LWPOLYLINE
5
107
100
AcDbEntity
8
0
100
AcDbPolyline
90
4
70
1
43
0.0
10
345.39740376649439
20
20.233130664021978
42
-0.99999999999999989
10
348.53114243845022
20
20.233130664022067
10
348.53114243845022
20
18.416869335977978
42
-0.99999999999999989
10
345.39740376649439
20
18.416869335977886
0
ARC
5
108
100
AcDbEntity
8
0
100
AcDbCircle
10
51.696795756948362
20
75.233842624857218
30
0
40
1.566869335977934
210
0
220
0
230
-1
100
AcDbArc
50
-180
51
0
0
CIRCLE
5
109
100
AcDbEntity
8
0
100
AcDbCircle
10
58.763665094583253
20
15.999999999999996
30
0
40
1.25
210
0
220
0
230
-1
0
ARC
5
110
100
AcDbEntity
8
0
100
AcDbCircle
10
51.696795756948326
20
18.416869335977889
30
0
40
1.5668693343390316
210
0
220
0
230
-1
100
AcDbArc
50
-180
51
0
0
LINE
5
111
100
AcDbEntity
8
0
100
AcDbLine
10
-53.263665094583253
20
110.51707724178101
30
0
11
-53.263665094583253
21
108.70081591373683
31
0
0
CIRCLE
5
112
100
AcDbEntity
8
0
100
AcDbCircle
10
-232.50000662592456
20
-8.6337320460312856
30
0
40
1.25
210
0
220
0
230
-1
0
CIRCLE
5
113
100
AcDbEntity
8
0
100
AcDbCircle
10
-358.03114243847801
20
79.466973288879473
30
0
40
1.25
210
0
220
0
230
-1
0
CIRCLE
5
114
100
AcDbEntity
8
0
100
AcDbCircle
10
-232.50000662592456
20
137.56767862379021
30
0
40
1.25
210
0
220
0
230
-1
0
LINE
5
115
100
AcDbEntity
8
0
100
AcDbLine
10
-50.129926420970428
20
75.233842624857218
30
0
11
-50.129926422609365
21
77.050103952901424
31
0
0
CIRCLE
5
116
100
AcDbEntity
8
0
100
AcDbCircle
10
-331.99740376652153
20
120.43394657775892
30
0
40
1.3000000000000256
210
0
220
0
230
-1
0
CIRCLE
5
117
100
AcDbEntity
8
0
100
AcDbCircle
10
-314.79740376652148
20
120.43394657775892
30
0
40
1.2999999999999901
210
0
220
0
230
-1
0
LWPOLYLINE
5
118
100
AcDbEntity
8
0
100
AcDbPolyline
90
8
70
1
43
0.0
10
128.87007357739077
20
114.13394657775896
10
128.87007357739077
20
14.799999999999985
42
0.41421356237309659
10
131.8700735773908
20
11.799999999999981
10
173.1299264226092
20
11.800000000000024
42
0.4142135623731007
10
176.12992642260917
20
14.799999999999986
10
176.1299264226092
20
114.13394657775896
42
0.41421356237310025
10
173.1299264226092
20
117.13394657775893
10
131.87007357739077
20
117.13394657775896
42
0.41421356237310025
0
CIRCLE
5
119
100
AcDbEntity
8
0
100
AcDbCircle
10
-319.09740376652144
20
90.333946577758923
30
0
40
1.2999999999999901
210
0
220
0
230
-1
0
CIRCLE
5
120
100
AcDbEntity
8
0
100
AcDbCircle
10
-336.29740376652137
20
107.53394657775893
30
0
40
1.3000000000000256
210
0
220
0
230
-1
0
CIRCLE
5
121
100
AcDbEntity
8
0
100
AcDbCircle
10
-331.99740376652153
20
86.033946577758911
30
0
40
1.3000000000000256
210
0
220
0
230
-1
0
CIRCLE
5
122
100
AcDbEntity
8
0
100
AcDbCircle
10
-323.39740376652145
20
90.333946577758923
30
0
40
1.3000000000000256
210
0
220
0
230
-1
0
CIRCLE
5
123
100
AcDbEntity
8
0
100
AcDbCircle
10
-323.39740376652145
20
111.83394657775892
30
0
40
1.3000000000000256
210
0
220
0
230
-1
0
CIRCLE
5
124
100
AcDbEntity
8
0
100
AcDbCircle
10
-336.29740376652137
20
103.23394657775893
30
0
40
1.3000000000000256
210
0
220
0
230
-1
0
CIRCLE
5
125
100
AcDbEntity
8
0
100
AcDbCircle
10
-336.29740376652137
20
111.83394657775892
30
0
40
1.3000000000000256
210
0
220
0
230
-1
0
CIRCLE
5
126
100
AcDbEntity
8
0
100
AcDbCircle
10
-331.99740376652153
20
98.933946577758931
30
0
40
1.3000000000000256
210
0
220
0
230
-1
0
CIRCLE
5
127
100
AcDbEntity
8
0
100
AcDbCircle
10
-310.49740376652147
20
103.23394657775893
30
0
40
1.2999999999999901
210
0
220
0
230
-1
0
CIRCLE
5
128
100
AcDbEntity
8
0
100
AcDbCircle
10
-319.09740376652144
20
103.23394657775893
30
0
40
1.2999999999999901
210
0
220
0
230
-1
0
CIRCLE
5
129
100
AcDbEntity
8
0
100
AcDbCircle
10
-327.69740376652129
20
98.933946577758931
30
0
40
1.3000000000000256
210
0
220
0
230
-1
0
CIRCLE
5
130
100
AcDbEntity
8
0
100
AcDbCircle
10
-310.49740376652147
20
120.43394657775892
30
0
40
1.2999999999999901
210
0
220
0
230
-1
0
CIRCLE
5
131
100
AcDbEntity
8
0
100
AcDbCircle
10
-327.69740376652129
20
94.63394657775892
30
0
40
1.3000000000000256
210
0
220
0
230
-1
0
LWPOLYLINE
5
132
100
AcDbEntity
8
0
100
AcDbPolyline
90
8
70
1
43
0.0
10
93.129926422609159
20
11.799999999999995
10
51.870073577390777
20
11.799999999999988
42
-0.41421356237309481
10
48.870073577390762
20
14.799999999999986
10
48.870073577390762
20
114.13394657775893
42
-0.41421356237309159
10
51.870073577390734
20
117.13394657775893
10
93.129926422609159
20
117.13394657775895
42
-0.41421356237310025
10
96.129926422609202
20
114.13394657775893
10
96.129926422609174
20
14.799999999999985
42
-0.4142135623730927
0
CIRCLE
5
133
100
AcDbEntity
8
0
100
AcDbCircle
10
-323.39740376652145
20
94.63394657775892
30
0
40
1.3000000000000256
210
0
220
0
230
-1
0
CIRCLE
5
134
100
AcDbEntity
8
0
100
AcDbCircle
10
-331.99740376652153
20
111.83394657775892
30
0
40
1.3000000000000256
210
0
220
0
230
-1
0
CIRCLE
5
135
100
AcDbEntity
8
0
100
AcDbCircle
10
-323.39740376652145
20
120.43394657775892
30
0
40
1.3000000000000256
210
0
220
0
230
-1
0
CIRCLE
5
136
100
AcDbEntity
8
0
100
AcDbCircle
10
-336.29740376652137
20
81.7339465777589
30
0
40
1.3000000000000256
210
0
220
0
230
-1
0
CIRCLE
5
137
100
AcDbEntity
8
0
100
AcDbCircle
10
-336.29740376652137
20
98.933946577758931
30
0
40
1.3000000000000256
210
0
220
0
230
-1
0
CIRCLE
5
138
100
AcDbEntity
8
0
100
AcDbCircle
10
-323.39740376652145
20
98.933946577758931
30
0
40
1.3000000000000256
210
0
220
0
230
-1
0
CIRCLE
5
139
100
AcDbEntity
8
0
100
AcDbCircle
10
-327.69740376652129
20
111.83394657775892
30
0
40
1.3000000000000256
210
0
220
0
230
-1
0
CIRCLE
5
140
100
AcDbEntity
8
0
100
AcDbCircle
10
-331.99740376652153
20
116.13394657775892
30
0
40
1.3000000000000256
210
0
220
0
230
-1
0
CIRCLE
5
141
100
AcDbEntity
8
0
100
AcDbCircle
10
-314.79740376652148
20
116.13394657775892
30
0
40
1.2999999999999901
210
0
220
0
230
-1
0
LWPOLYLINE
5
142
100
AcDbEntity
8
0
100
AcDbPolyline
90
8
70
1
43
0.0
10
13.129926422609195
20
11.799999999999988
42
0.41421356237309287
10
16.129926422609202
20
14.799999999999969
10
16.12992642260917
20
114.13394657775893
42
0.41421356237309465
10
13.129926422609204
20
117.13394657775893
10
-28.12992642260923
20
117.13394657775893
42
0.41421356237308071
10
-31.129926422609238
20
114.13394657775896
10
-31.129926422609273
20
14.799999999999985
42
0.41421356237309437
10
-28.12992642260923
20
11.799999999999946
0
CIRCLE
5
143
100
AcDbEntity
8
0
100
AcDbCircle
10
-336.29740376652137
20
94.63394657775892
30
0
40
1.3000000000000256
210
0
220
0
230
-1
0
CIRCLE
5
144
100
AcDbEntity
8
0
100
AcDbCircle
10
-331.99740376652153
20
94.63394657775892
30
0
40
1.3000000000000256
210
0
220
0
230
-1
0
CIRCLE
5
145
100
AcDbEntity
8
0
100
AcDbCircle
10
-314.79740376652148
20
103.23394657775893
30
0
40
1.2999999999999901
210
0
220
0
230
-1
0
CIRCLE
5
146
100
AcDbEntity
8
0
100
AcDbCircle
10
-319.09740376652144
20
116.13394657775892
30
0
40
1.2999999999999901
210
0
220
0
230
-1
0
CIRCLE
5
147
100
AcDbEntity
8
0
100
AcDbCircle
10
-310.49740376652147
20
107.53394657775893
30
0
40
1.2999999999999901
210
0
220
0
230
-1
0
CIRCLE
5
148
100
AcDbEntity
8
0
100
AcDbCircle
10
-323.39740376652145
20
116.13394657775892
30
0
40
1.3000000000000256
210
0
220
0
230
-1
0
CIRCLE
5
149
100
AcDbEntity
8
0
100
AcDbCircle
10
-310.49740376652147
20
90.333946577758923
30
0
40
1.2999999999999901
210
0
220
0
230
-1
0
CIRCLE
5
150
100
AcDbEntity
8
0
100
AcDbCircle
10
-319.09740376652144
20
111.83394657775892
30
0
40
1.2999999999999901
210
0
220
0
230
-1
0
CIRCLE
5
151
100
AcDbEntity
8
0
100
AcDbCircle
10
-327.69740376652129
20
103.23394657775893
30
0
40
1.3000000000000256
210
0
220
0
230
-1
0
CIRCLE
5
152
100
AcDbEntity
8
0
100
AcDbCircle
10
-310.49740376652147
20
81.7339465777589
30
0
40
1.2999999999999901
210
0
220
0
230
-1
0
CIRCLE
5
153
100
AcDbEntity
8
0
100
AcDbCircle
10
-319.09740376652144
20
94.63394657775892
30
0
40
1.2999999999999901
210
0
220
0
230
-1
0
CIRCLE
5
154
100
AcDbEntity
8
0
100
AcDbCircle
10
-327.69740376652129
20
90.333946577758923
30
0
40
1.3000000000000256
210
0
220
0
230
-1
0
CIRCLE
5
155
100
AcDbEntity
8
0
100
AcDbCircle
10
-327.69740376652129
20
86.033946577758911
30
0
40
1.3000000000000256
210
0
220
0
230
-1
0
CIRCLE
5
156
100
AcDbEntity
8
0
100
AcDbCircle
10
-314.79740376652148
20
107.53394657775893
30
0
40
1.2999999999999901
210
0
220
0
230
-1
0
CIRCLE
5
157
100
AcDbEntity
8
0
100
AcDbCircle
10
-323.39740376652253
20
48.000000000000007
30
0
40
6.1500000000000199
210
0
220
0
230
-1
0
CIRCLE
5
158
100
AcDbEntity
8
0
100
AcDbCircle
10
-314.79740376652148
20
90.333946577758923
30
0
40
1.2999999999999901
210
0
220
0
230
-1
0
CIRCLE
5
159
100
AcDbEntity
8
0
100
AcDbCircle
10
-319.09740376652144
20
120.43394657775892
30
0
40
1.2999999999999901
210
0
220
0
230
-1
0
CIRCLE
5
160
100
AcDbEntity
8
0
100
AcDbCircle
10
-331.99740376652153
20
81.7339465777589
30
0
40
1.3000000000000256
210
0
220
0
230
-1
0
CIRCLE
5
161
100
AcDbEntity
8
0
100
AcDbCircle
10
-181.32992642260919
20
13.79999999999999
30
0
40
0.80000000000001847
210
0
220
0
230
-1
0
CIRCLE
5
162
100
AcDbEntity
8
0
100
AcDbCircle
10
-331.99740376652153
20
90.333946577758923
30
0
40
1.3000000000000256
210
0
220
0
230
-1
0
CIRCLE
5
163
100
AcDbEntity
8
0
100
AcDbCircle
10
-336.29740376652137
20
116.13394657775892
30
0
40
1.3000000000000256
210
0
220
0
230
-1
0
LWPOLYLINE
5
164
100
AcDbEntity
8
0
100
AcDbPolyline
90
8
70
1
43
0.0
10
256.12992642260929
20
14.799999999999985
42
-0.41421356237310264
10
253.12992642260926
20
11.799999999999981
10
211.87007357739083
20
11.799999999999965
42
-0.41421356237308943
10
208.87007357739083
20
14.799999999999986
10
208.87007357739083
20
114.13394657775893
42
-0.41421356237309503
10
211.87007357739083
20
117.13394657775893
10
253.12992642260926
20
117.13394657775893
42
-0.41421356237309853
10
256.12992642260923
20
114.13394657775893
0
CIRCLE
5
165
100
AcDbEntity
8
0
100
AcDbCircle
10
-314.79740376652148
20
98.933946577758931
30
0
40
1.2999999999999901
210
0
220
0
230
-1
0
CIRCLE
5
166
100
AcDbEntity
8
0
100
AcDbCircle
10
-319.09740376652144
20
107.53394657775893
30
0
40
1.2999999999999901
210
0
220
0
230
-1
0
CIRCLE
5
167
100
AcDbEntity
8
0
100
AcDbCircle
10
-123.67007357739078
20
115.13394657775892
30
0
40
0.80000000000000071
210
0
220
0
230
-1
0
CIRCLE
5
168
100
AcDbEntity
8
0
100
AcDbCircle
10
-336.29740376652137
20
120.43394657775892
30
0
40
1.3000000000000256
210
0
220
0
230
-1
0
CIRCLE
5
169
100
AcDbEntity
8
0
100
AcDbCircle
10
-310.49740376652147
20
94.63394657775892
30
0
40
1.2999999999999901
210
0
220
0
230
-1
0
CIRCLE
5
170
100
AcDbEntity
8
0
100
AcDbCircle
10
-323.39740376652145
20
103.23394657775893
30
0
40
1.3000000000000256
210
0
220
0
230
-1
0
CIRCLE
5
171
100
AcDbEntity
8
0
100
AcDbCircle
10
-323.39740376652145
20
81.7339465777589
30
0
40
1.3000000000000256
210
0
220
0
230
-1
0
CIRCLE
5
172
100
AcDbEntity
8
0
100
AcDbCircle
10
-323.39740376652253
20
15.999999999999996
30
0
40
6.1500000000000199
210
0
220
0
230
-1
0
CIRCLE
5
173
100
AcDbEntity
8
0
100
AcDbCircle
10
-319.09740376652144
20
86.033946577758911
30
0
40
1.2999999999999901
210
0
220
0
230
-1
0
CIRCLE
5
174
100
AcDbEntity
8
0
100
AcDbCircle
10
-319.09740376652144
20
98.933946577758931
30
0
40
1.2999999999999901
210
0
220
0
230
-1
0
CIRCLE
5
175
100
AcDbEntity
8
0
100
AcDbCircle
10
-314.79740376652148
20
111.83394657775892
30
0
40
1.2999999999999901
210
0
220
0
230
-1
0
CIRCLE
5
176
100
AcDbEntity
8
0
100
AcDbCircle
10
-310.49740376652147
20
86.033946577758911
30
0
40
1.2999999999999901
210
0
220
0
230
-1
0
CIRCLE
5
177
100
AcDbEntity
8
0
100
AcDbCircle
10
-336.29740376652137
20
86.033946577758911
30
0
40
1.3000000000000256
210
0
220
0
230
-1
0
CIRCLE
5
178
100
AcDbEntity
8
0
100
AcDbCircle
10
-327.69740376652129
20
120.43394657775892
30
0
40
1.3000000000000256
210
0
220
0
230
-1
0
CIRCLE
5
179
100
AcDbEntity
8
0
100
AcDbCircle
10
-310.49740376652147
20
116.13394657775892
30
0
40
1.2999999999999901
210
0
220
0
230
-1
0
CIRCLE
5
180
100
AcDbEntity
8
0
100
AcDbCircle
10
-310.49740376652147
20
98.933946577758931
30
0
40
1.2999999999999901
210
0
220
0
230
-1
0
CIRCLE
5
181
100
AcDbEntity
8
0
100
AcDbCircle
10
-327.69740376652129
20
116.13394657775892
30
0
40
1.3000000000000256
210
0
220
0
230
-1
0
CIRCLE
5
182
100
AcDbEntity
8
0
100
AcDbCircle
10
-336.29740376652137
20
90.333946577758923
30
0
40
1.3000000000000256
210
0
220
0
230
-1
0
CIRCLE
5
183
100
AcDbEntity
8
0
100
AcDbCircle
10
-319.09740376652144
20
81.7339465777589
30
0
40
1.2999999999999901
210
0
220
0
230
-1
0
CIRCLE
5
184
100
AcDbEntity
8
0
100
AcDbCircle
10
-43.670073577390774
20
115.13394657775892
30
0
40
0.79999999999998295
210
0
220
0
230
-1
0
CIRCLE
5
185
100
AcDbEntity
8
0
100
AcDbCircle
10
-314.79740376652148
20
94.63394657775892
30
0
40
1.2999999999999901
210
0
220
0
230
-1
0
CIRCLE
5
186
100
AcDbEntity
8
0
100
AcDbCircle
10
36.329926422609226
20
115.13394657775892
30
0
40
0.79999999999998295
210
0
220
0
230
-1
0
CIRCLE
5
187
100
AcDbEntity
8
0
100
AcDbCircle
10
-331.99740376652153
20
103.23394657775893
30
0
40
1.3000000000000256
210
0
220
0
230
-1
0
CIRCLE
5
188
100
AcDbEntity
8
0
100
AcDbCircle
10
-323.39740376652145
20
86.033946577758911
30
0
40
1.3000000000000256
210
0
220
0
230
-1
0
CIRCLE
5
189
100
AcDbEntity
8
0
100
AcDbCircle
10
-323.39740376652253
20
32
30
0
40
6.1500000000000199
210
0
220
0
230
-1
0
CIRCLE
5
190
100
AcDbEntity
8
0
100
AcDbCircle
10
-327.69740376652129
20
81.7339465777589
30
0
40
1.3000000000000256
210
0
220
0
230
-1
0
CIRCLE
5
191
100
AcDbEntity
8
0
100
AcDbCircle
10
-327.69740376652129
20
107.53394657775893
30
0
40
1.3000000000000256
210
0
220
0
230
-1
0
CIRCLE
5
192
100
AcDbEntity
8
0
100
AcDbCircle
10
-310.49740376652147
20
111.83394657775892
30
0
40
1.2999999999999901
210
0
220
0
230
-1
0
CIRCLE
5
193
100
AcDbEntity
8
0
100
AcDbCircle
10
-331.99740376652153
20
107.53394657775893
30
0
40
1.3000000000000256
210
0
220
0
230
-1
0
CIRCLE
5
194
100
AcDbEntity
8
0
100
AcDbCircle
10
-314.79740376652148
20
81.7339465777589
30
0
40
1.2999999999999901
210
0
220
0
230
-1
0
CIRCLE
5
195
100
AcDbEntity
8
0
100
AcDbCircle
10
-323.39740376652145
20
107.53394657775893
30
0
40
1.3000000000000256
210
0
220
0
230
-1
0
LWPOLYLINE
5
196
100
AcDbEntity
8
0
100
AcDbPolyline
90
4
70
1
43
0.0
10
276.76366509456506
20
37.015103952901562
42
0.99999999999999989
10
273.62992642260883
20
37.015103952901562
10
273.62992642260883
20
28.148842624857345
42
0.99999999999999989
10
276.76366509456506
20
28.148842624857355
0
CIRCLE
5
197
100
AcDbEntity
8
0
100
AcDbCircle
10
-261.32992642260916
20
13.79999999999999
30
0
40
0.79999999999998295
210
0
220
0
230
-1
0
LWPOLYLINE
5
198
100
AcDbEntity
8
0
100
AcDbPolyline
90
4
70
1
43
0.0
10
298.26366509456511
20
12.206342624857349
42
0.99999999999999989
10
301.39740376651719
20
12.206342624857367
10
301.39740376651707
20
21.072603952901563
42
0.99999999999999989
10
298.26366509456506
20
21.072603952901527
0
CIRCLE
5
199
100
AcDbEntity
8
0
100
AcDbCircle
10
-203.67007357739084
20
13.800000000000008
30
0
40
0.79999999999998295
210
0
220
0
230
-1
0
LWPOLYLINE
5
200
100
AcDbEntity
8
0
100
AcDbPolyline
90
4
70
1
43
0.0
10
273.62992642260883
20
84.84260395290157
10
273.62992642260878
20
75.976342624857381
42
0.99999999999999989
10
276.76366509456506
20
75.976342624857338
10
276.76366509456506
20
84.84260395290157
42
0.99999999999999989
0
LWPOLYLINE
5
201
100
AcDbEntity
8
0
100
AcDbPolyline
90
4
70
1
43
0.0
10
298.26366509456125
20
100.78510395290155
10
298.26366509456136
20
91.918842624857405
42
0.99999999999999989
10
301.39740376652105
20
91.918842624857362
10
301.39740376652105
20
100.78510395290155
42
0.99999999999999989
0
LWPOLYLINE
5
202
100
AcDbEntity
8
0
100
AcDbPolyline
90
4
70
1
43
0.0
10
298.26366509456506
20
107.86134262485744
42
0.99999999999999989
10
301.39740376652105
20
107.8613426248574
10
301.39740376652105
20
116.72760395290153
42
0.99999999999999989
10
298.26366509456136
20
116.72760395290156
0
LWPOLYLINE
5
203
100
AcDbEntity
8
0
100
AcDbPolyline
90
4
70
1
43
0.0
10
276.7636650945646
20
116.72760395290156
10
276.76366509456489
20
107.86134262485734
42
-0.99999999999999989
10
273.62992642260895
20
107.86134262485734
10
273.62992642260889
20
116.7276039529016
42
-0.99999999999999989
0
LWPOLYLINE
5
204
100
AcDbEntity
8
0
100
AcDbPolyline
90
4
70
1
43
0.0
10
273.62992642260895
20
44.091342624857354
10
273.62992642260883
20
52.95760395290155
42
-0.99999999999999989
10
276.7636650945646
20
52.957603952901565
10
276.76366509456471
20
44.091342624857354
42
-0.99999999999999989
0
CIRCLE
5
205
100
AcDbEntity
8
0
100
AcDbCircle
10
-181.32992642260919
20
115.13394657775892
30
0
40
0.79999999999998295
210
0
220
0
230
-1
0
LWPOLYLINE
5
206
100
AcDbEntity
8
0
100
AcDbPolyline
90
4
70
1
43
0.0
10
273.62992642260895
20
91.918842624857362
10
273.62992642260883
20
100.78510395290155
42
-0.99999999999999989
10
276.7636650945646
20
100.78510395290155
10
276.76366509456454
20
91.918842624857362
42
-0.99999999999999989
0
LWPOLYLINE
5
207
100
AcDbEntity
8
0
100
AcDbPolyline
90
4
70
1
43
0.0
10
298.26366509456136
20
60.033842624857307
42
0.99999999999999989
10
301.39740376652105
20
60.033842624857378
10
301.39740376652111
20
68.900103952901546
42
0.99999999999999989
10
298.2636650945613
20
68.90010395290156
0
CIRCLE
5
208
100
AcDbEntity
8
0
100
AcDbCircle
10
-314.79740376652148
20
86.033946577758911
30
0
40
1.2999999999999901
210
0
220
0
230
-1
0
CIRCLE
5
209
100
AcDbEntity
8
0
100
AcDbCircle
10
-21.329926422609198
20
115.13394657775892
30
0
40
0.79999999999998295
210
0
220
0
230
-1
0
CIRCLE
5
210
100
AcDbEntity
8
0
100
AcDbCircle
10
-21.329926422609198
20
13.79999999999999
30
0
40
0.79999999999998295
210
0
220
0
230
-1
0
LWPOLYLINE
5
211
100
AcDbEntity
8
0
100
AcDbPolyline
90
4
70
1
43
0.0
10
273.62992642260878
20
60.03384262485735
10
273.62992642260889
20
68.900103952901617
42
-0.99999999999999989
10
276.7636650945646
20
68.90010395290156
10
276.76366509456449
20
60.033842624857385
42
-0.99999999999999989
0
LWPOLYLINE
5
212
100
AcDbEntity
8
0
100
AcDbPolyline
90
4
70
1
43
0.0
10
301.39740376651707
20
84.842603952901555
10
301.39740376651719
20
75.976342624857381
42
-0.99999999999999989
10
298.2636650945613
20
75.976342624857338
10
298.26366509456136
20
84.842603952901584
42
-0.99999999999999989
0
LWPOLYLINE
5
213
100
AcDbEntity
8
0
100
AcDbPolyline
90
4
70
1
43
0.0
10
298.26366509456142
20
52.957603952901565
42
-0.99999999999999989
10
301.39740376651719
20
52.95760395290155
10
301.39740376651719
20
44.091342624857397
42
-0.99999999999999989
10
298.2636650945613
20
44.091342624857361
0
CIRCLE
5
214
100
AcDbEntity
8
0
100
AcDbCircle
10
-261.32992642260916
20
115.13394657775892
30
0
40
0.79999999999998295
210
0
220
0
230
-1
0
LWPOLYLINE
5
215
100
AcDbEntity
8
0
100
AcDbPolyline
90
4
70
1
43
0.0
10
298.26366509456125
20
37.015103952901498
42
-0.99999999999999989
10
301.39740376651707
20
37.015103952901534
10
301.3974037665173
20
28.148842624857405
42
-0.99999999999999989
10
298.26366509456142
20
28.148842624857352
0
CIRCLE
5
216
100
AcDbEntity
8
0
100
AcDbCircle
10
-101.32992642260919
20
13.79999999999999
30
0
40
0.80000000000000071
210
0
220
0
230
-1
0
CIRCLE
5
217
100
AcDbEntity
8
0
100
AcDbCircle
10
-101.32992642260923
20
115.13394657775892
30
0
40
0.80000000000000071
210
0
220
0
230
-1
0
CIRCLE
5
218
100
AcDbEntity
8
0
100
AcDbCircle
10
-323.39740376652253
20
63.999999999999993
30
0
40
6.1500000000000199
210
0
220
0
230
-1
0
CIRCLE
5
219
100
AcDbEntity
8
0
100
AcDbCircle
10
-123.67007357739077
20
13.800000000000008
30
0
40
0.80000000000000071
210
0
220
0
230
-1
0
LINE
5
220
100
AcDbEntity
8
0
100
AcDbLine
10
-50.129926420970364
20
115.35081591373682
30
0
11
-50.129926422609302
21
117.16707724178094
31
0
0
ARC
5
221
100
AcDbEntity
8
0
100
AcDbCircle
10
51.696795756948362
20
51.883842624857479
30
0
40
1.566869335977934
210
0
220
0
230
-1
100
AcDbArc
50
-180
51
0
0
ARC
5
222
100
AcDbEntity
8
0
100
AcDbCircle
10
51.696795756948326
20
11.766869335977912
30
0
40
1.5668693359778985
210
0
220
0
230
-1
100
AcDbArc
50
-180
51
0
0
CIRCLE
5
223
100
AcDbEntity
8
0
100
AcDbCircle
10
-43.670073577390774
20
13.800000000000008
30
0
40
0.79999999999998295
210
0
220
0
230
-1
0
LWPOLYLINE
5
224
100
AcDbEntity
8
0
100
AcDbPolyline
90
4
70
1
43
0.0
10
230.08313342982589
20
132.06768524971113
10
228.2668693359779
20
132.06768524971477
42
0.99999999999999989
10
228.2668693359779
20
128.93394657775897
10
230.08313066417659
20
128.93394657775897
42
0.99999911739742942
0
LWPOLYLINE
5
225
100
AcDbEntity
8
0
100
AcDbPolyline
90
4
70
1
43
0.0
10
236.73313066402213
20
128.93394657775897
42
0.99999999999999989
10
236.73313066402213
20
132.06768524971477
10
234.91686933597791
20
132.06768524971474
42
0.99999999999999989
10
234.91686933597799
20
128.93394657775769
0
ARC
5
226
100
AcDbEntity
8
0
100
AcDbCircle
10
51.696795756948468
20
13.583130664022081
30
0
40
1.5668693376347775
210
0
220
0
230
-1
100
AcDbArc
50
0
51
180
0
LWPOLYLINE
5
227
100
AcDbEntity
8
0
100
AcDbPolyline
90
4
70
1
43
0.0
10
230.08313066411063
20
3.7556069365507483e-12
10
228.26686933597801
20
1.0480505352461478e-12
42
0.99999999999999989
10
228.26686933597787
20
-3.1337386719558813
10
230.08313342969484
20
-3.1337386719558733
42
0.99999911746032633
0
LWPOLYLINE
5
228
100
AcDbEntity
8
0
100
AcDbPolyline
90
4
70
1
43
0.0
10
234.91686933597791
20
0
42
0.99999999999999989
10
234.91686933597791
20
-3.1337386719558991
10
236.73313066402221
20
-3.1337386719558729
42
0.99999999999999989
10
236.73313066402201
20
1.0125233984581428e-12
0
LWPOLYLINE
5
229
100
AcDbEntity
8
0
100
AcDbPolyline
90
4
70
1
43
0.0
10
-11.733130664022086
20
132.06768524971352
10
-9.9168693359779496
20
132.06768524971349
42
-0.99999999999999989
10
-9.9168693359779088
20
128.93394657775758
10
-11.733130664022086
20
128.93394657775772
42
-0.99999999999999989
0
LWPOLYLINE
5
230
100
AcDbEntity
8
0
100
AcDbPolyline
90
4
70
1
43
0.0
10
345.39740376649422
20
81.88384262485738
42
0.99999999999999989
10
348.53114243847784
20
81.883842624857266
10
348.53114243847779
20
83.700103952901571
42
0.99999999999999989
10
345.39740376649439
20
83.7001039529015
0
LWPOLYLINE
5
231
100
AcDbEntity
8
0
100
AcDbPolyline
90
4
70
1
43
0.0
10
-5.0831334298263195
20
-3.1337386719558906
10
-3.266869335977951
20
-3.1337386719558902
42
0.99999999999999989
10
-3.26686933597788
20
1.065536547883994e-12
10
-5.0831306641760987
20
9.946699248697655e-13
42
0.99999911739742942
0
LINE
5
232
100
AcDbEntity
8
0
100
AcDbLine
10
-53.263665094583246
20
13.583130664022081
30
0
11
-53.263665094583253
21
11.766869335977912
31
0
0
LWPOLYLINE
5
233
100
AcDbEntity
8
0
100
AcDbPolyline
90
4
70
1
43
0.0
10
345.39740376649428
20
108.70081591373678
10
345.39740376649439
20
110.51707724178094
42
-0.99999999999999989
10
348.53114243845022
20
110.51707724178101
10
348.53114243845005
20
108.70081591373692
42
-0.99999999999999989
0
LWPOLYLINE
5
234
100
AcDbEntity
8
0
100
AcDbPolyline
90
4
70
1
43
0.0
10
348.53114243845027
20
13.583130664021974
42
0.99999999999999989
10
345.39740376652117
20
13.583130664022089
10
345.39740376652111
20
11.766869335978019
42
0.99999999999999989
10
348.53114243845022
20
11.766869335977859
0
LINE
5
235
100
AcDbEntity
8
0
100
AcDbLine
10
-53.263665094583253
20
117.167077241781
30
0
11
-53.263665094583253
21
115.35081591373682
31
0
0
LWPOLYLINE
5
236
100
AcDbEntity
8
0
100
AcDbPolyline
90
4
70
1
43
0.0
10
-11.733130664022086
20
1.0036416142611415e-12
10
-9.9168693359779763
20
1.0663692151524629e-12
42
-0.99999999999999989
10
-9.9168693359779088
20
-3.1337386719547489
10
-11.733130664022086
20
-3.1337386719548115
42
-0.99999999999999989
0
CIRCLE
5
237
100
AcDbEntity
8
0
100
AcDbCircle
10
-203.67007357739084
20
115.13394657775892
30
0
40
0.80000000000001847
210
0
220
0
230
-1
0
ARC
5
238
100
AcDbEntity
8
0
100
AcDbCircle
10
51.696795756948362
20
45.233842624857388
30
0
40
1.566869335977934
210
0
220
0
230
-1
100
AcDbArc
50
-180
51
0
0
CIRCLE
5
239
100
AcDbEntity
8
0
100
AcDbCircle
10
36.329926422609226
20
13.800000000000008
30
0
40
0.79999999999998295
210
0
220
0
230
-1
0
ARC
5
240
100
AcDbEntity
8
0
100
AcDbCircle
10
51.696795756948681
20
47.050103952901623
30
0
40
1.5668693359779695
210
0
220
0
230
-1
100
AcDbArc
50
0
51
180
0
LINE
5
241
100
AcDbEntity
8
0
100
AcDbLine
10
-50.129926420970428
20
45.233842624857388
30
0
11
-50.129926422609302
21
47.050103952901608
31
0
0
LINE
5
242
100
AcDbEntity
8
0
100
AcDbLine
10
-50.129926420970428
20
51.883842624857479
30
0
11
-50.129926422609302
21
53.700103952901671
31
0
0
ARC
5
243
100
AcDbEntity
8
0
100
AcDbCircle
10
51.696795756948262
20
115.35081591373682
30
0
40
1.5668693359778985
210
0
220
0
230
-1
100
AcDbArc
50
-180
51
0
0
LWPOLYLINE
5
244
100
AcDbEntity
8
0
100
AcDbPolyline
90
4
70
1
43
0.0
10
-3.266869335977951
20
128.93394657775897
42
0.99999999999999989
10
-3.26686933597788
20
132.06768524971349
10
-5.0831334298918494
20
132.0676852497148
42
0.99999911742887726
10
-5.0831306641105911
20
128.93394657775897
0
ARC
5
245
100
AcDbEntity
8
0
100
AcDbCircle
10
51.696795756946798
20
117.16707724178094
30
0
40
1.5668693376364473
210
0
220
0
230
-1
100
AcDbArc
50
0
51
180
0
LWPOLYLINE
5
246
100
AcDbEntity
8
0
100
AcDbPolyline
90
4
70
1
43
0.0
10
273.62992642260878
20
12.206342624857349
10
273.62992642260883
20
21.072603952901549
42
-0.99999999999999989
10
276.7636650945646
20
21.072603952901567
10
276.76366509456449
20
12.206342624857385
42
-0.99999999999999989
0
LINE
5
247
100
AcDbEntity
8
0
100
AcDbLine
10
-53.263665092926651
20
47.050103952901623
30
0
11
-53.263665092926296
21
45.233842624857388
31
0
0
LINE
5
248
100
AcDbEntity
8
0
100
AcDbLine
10
-50.129926420970428
20
11.766869335977912
30
0
11
-50.129926422609302
21
13.583130664022089
31
0
0
ARC
5
249
100
AcDbEntity
8
0
100
AcDbCircle
10
51.696795756948617
20
53.700103952901671
30
0
40
1.566869335977934
210
0
220
0
230
-1
100
AcDbArc
50
0
51
180
0
LINE
5
250
100
AcDbEntity
8
0
100
AcDbLine
10
-53.263665092926296
20
20.23313066402207
30
0
11
-53.263665094583253
21
18.416869335977907
31
0
0
CIRCLE
5
251
100
AcDbEntity
8
0
100
AcDbCircle
10
58.763665094583253
20
79.466973288879473
30
0
40
1.25
210
0
220
0
230
-1
0
CIRCLE
5
252
100
AcDbEntity
8
0
100
AcDbCircle
10
58.763665094583253
20
49.466973288879466
30
0
40
1.25
210
0
220
0
230
-1
0
CIRCLE
5
253
100
AcDbEntity
8
0
100
AcDbCircle
10
58.763665094583253
20
112.93394657775892
30
0
40
1.25
210
0
220
0
230
-1
0
ARC
5
254
100
AcDbEntity
8
0
100
AcDbCircle
10
51.696795756948262
20
108.70081591373683
30
0
40
1.5668693359778985
210
0
220
0
230
-1
100
AcDbArc
50
-180
51
0
0
LWPOLYLINE
5
255
100
AcDbEntity
8
0
100
AcDbPolyline
90
4
70
1
43
0.0
10
348.53114243845022
20
117.167077241781
10
348.53114243845022
20
115.35081591373688
42
-0.99999999999999989
10
345.39740376649439
20
115.35081591373677
10
345.39740376649439
20
117.16707724178096
42
-0.99999999999999989
0
LWPOLYLINE
5
256
100
AcDbEntity
8
0
100
AcDbPolyline
90
4
70
1
43
0.0
10
345.39740376652105
20
77.050103952901395
10
345.39740376652111
20
75.233842624857331
42
0.99999999999999989
10
348.53114243845022
20
75.233842624857203
10
348.53114243847767
20
77.050103952901537
42
0.99999999999999989
0
CIRCLE
5
257
100
AcDbEntity
8
0
100
AcDbCircle
10
-358.03114243847801
20
49.466973288879466
30
0
40
1.25
210
0
220
0
230
-1
0
LINE
5
258
100
AcDbEntity
8
0
100
AcDbLine
10
-53.263665094583352
20
77.050103952901424
30
0
11
-53.263665094583324
21
75.233842624857218
31
0
0
LINE
5
259
100
AcDbEntity
8
0
100
AcDbLine
10
-53.263665092926551
20
53.700103952901671
30
0
11
-53.263665092926296
21
51.883842624857479
31
0
0
CIRCLE
5
260
100
AcDbEntity
8
0
100
AcDbCircle
10
7.5092464950195748
20
-8.624492176936327
30
0
40
1.25
210
0
220
0
230
-1
0
CIRCLE
5
261
100
AcDbEntity
8
0
100
AcDbCircle
10
7.5092464950195748
20
137.55843875469526
30
0
40
1.25
210
0
220
0
230
-1
0
CIRCLE
5
262
100
AcDbEntity
8
0
100
AcDbCircle
10
-358.03114243847801
20
15.999999999999996
30
0
40
1.25
210
0
220
0
230
-1
0
ARC
5
263
100
AcDbEntity
8
0
100
AcDbCircle
10
51.696795756948653
20
77.050103952901424
30
0
40
1.5668693376347065
210
0
220
0
230
-1
100
AcDbArc
50
0
51
180
0
CIRCLE
5
264
100
AcDbEntity
8
0
100
AcDbCircle
10
-358.0311424384779
20
112.93394657775892
30
0
40
1.25
210
0
220
0
230
-1
0
ARC
5
265
100
AcDbEntity
8
0
100
AcDbCircle
10
51.696795756946941
20
110.517077241781
30
0
40
1.5668693376363052
210
0
220
0
230
-1
100
AcDbArc
50
0
51
180
0
ENDSEC
0
SECTION
2
OBJECTS
0
DICTIONARY
5
C
100
AcDbDictionary
3
ACAD_GROUP
350
D
3
ACAD_MLINESTYLE
350
17
0
DICTIONARY
5
D
100
AcDbDictionary
0
DICTIONARY
5
1A
330
C
100
AcDbDictionary
0
DICTIONARY
5
17
100
AcDbDictionary
0
ENDSEC
0
EOF
