0
SECTION
2
HEADER
9
$INSUNITS
70
4
9
$ACADVER
1
AC1014
9
$HANDSEED
5
FFFF
0
ENDSEC
0
SECTION
2
TABLES
0
TABLE
2
VPORT
5
8
100
AcDbSymbolTable
0
ENDTAB
0
TABLE
2
LTYPE
5
5
100
AcDbSymbolTable
0
LTYPE
5
14
100
AcDbSymbolTableRecord
100
AcDbLinetypeTableRecord
2
BYBLOCK
70
0
0
LTYPE
5
15
100
AcDbSymbolTableRecord
100
AcDbLinetypeTableRecord
2
BYLAYER
70
0
0
ENDTAB
0
TABLE
2
LAYER
5
2
100
AcDbSymbolTable
70
2
0
LAYER
5
50
100
AcDbSymbolTableRecord
100
AcDbLayerTableRecord
2
0
70
0
6
CONTINUOUS
0
ENDTAB
0
TABLE
2
STYLE
5
3
100
AcDbSymbolTable
70
1
0
STYLE
5
11
100
AcDbSymbolTableRecord
100
AcDbTextStyleTableRecord
2
STANDARD
70
0
0
ENDTAB
0
TABLE
2
VIEW
5
6
100
AcDbSymbolTable
70
0
0
ENDTAB
0
TABLE
2
UCS
5
7
100
AcDbSymbolTable
70
0
0
ENDTAB
0
TABLE
2
APPID
5
9
100
AcDbSymbolTable
70
2
0
APPID
5
12
100
AcDbSymbolTableRecord
100
AcDbRegAppTableRecord
2
ACAD
70
0
0
ENDTAB
0
TABLE
2
DIMSTYLE
5
A
100
AcDbSymbolTable
70
1
0
ENDTAB
0
TABLE
2
BLOCK_RECORD
5
1
100
AcDbSymbolTable
70
1
0
BLOCK_RECORD
5
1F
100
AcDbSymbolTableRecord
100
AcDbBlockTableRecord
2
*MODEL_SPACE
0
BLOCK_RECORD
5
1B
100
AcDbSymbolTableRecord
100
AcDbBlockTableRecord
2
*PAPER_SPACE
0
ENDTAB
0
ENDSEC
0
SECTION
2
BLOCKS
0
BLOCK
5
20
100
AcDbEntity
100
AcDbBlockBegin
2
*MODEL_SPACE
0
ENDBLK
5
21
100
AcDbEntity
100
AcDbBlockEnd
0
BLOCK
5
1C
100
AcDbEntity
100
AcDbBlockBegin
2
*PAPER_SPACE
0
ENDBLK
5
1D
100
AcDbEntity
100
AcDbBlockEnd
0
ENDSEC
0
SECTION
2
ENTITIES
0
LWPOLYLINE
5
100
100
AcDbEntity
8
OUTER_PROFILES
100
AcDbPolyline
90
8
70
1
43
0.0
10
-2.9999999999999716
20
2.9999999999999716
10
-2.9999999999999716
20
107.00000000000001
42
-0.41421356237309503
10
0
20
110.00000000000001
10
507.46127676688866
20
110.00000000000006
42
-0.41421356237309681
10
510.4612767668886
20
107.00000000000003
10
510.4612767668886
20
3.0000000000000626
42
-0.41421356237309698
10
507.46127676688866
20
1.7763568394002505e-14
10
8.326672684688675e-16
20
-2.9420910152566648e-14
42
-0.41421356237309515
0
CIRCLE
5
101
100
AcDbEntity
8
INTERIOR_PROFILES
100
AcDbCircle
10
-461.99427159246454
20
13.499994825592445
30
0
40
1.6500000000000004
210
0
220
0
230
-1
0
CIRCLE
5
102
100
AcDbEntity
8
INTERIOR_PROFILES
100
AcDbCircle
10
-495.46127676688866
20
97.500000000001791
30
0
40
1.6500000000000092
210
0
220
0
230
-1
0
CIRCLE
5
103
100
AcDbEntity
8
INTERIOR_PROFILES
100
AcDbCircle
10
-11.99999358613745
20
13.499993586130401
30
0
40
1.6500000000000004
210
0
220
0
230
-1
0
CIRCLE
5
104
100
AcDbEntity
8
INTERIOR_PROFILES
100
AcDbCircle
10
-45.466973288879586
20
75.499999999989626
30
0
40
1.6500000000000004
210
0
220
0
230
-1
0
CIRCLE
5
105
100
AcDbEntity
8
INTERIOR_PROFILES
100
AcDbCircle
10
-495.46128318075137
20
13.499993586154826
30
0
40
1.6500000000000004
210
0
220
0
230
-1
0
CIRCLE
5
106
100
AcDbEntity
8
INTERIOR_PROFILES
100
AcDbCircle
10
-45.467005174424244
20
13.499994825568038
30
0
40
1.6500000000000004
210
0
220
0
230
-1
0
CIRCLE
5
107
100
AcDbEntity
8
INTERIOR_PROFILES
100
AcDbCircle
10
-350.23064500936948
20
75.500006625923305
30
0
40
1.6499999999999915
210
0
220
0
230
-1
0
CIRCLE
5
108
100
AcDbEntity
8
INTERIOR_PROFILES
100
AcDbCircle
10
-461.99430347800921
20
97.500000000001791
30
0
40
1.6500000000000092
210
0
220
0
230
-1
0
CIRCLE
5
109
100
AcDbEntity
8
INTERIOR_PROFILES
100
AcDbCircle
10
-12.000000000000099
20
75.49999999998964
30
0
40
1.6500000000000004
210
0
220
0
230
-1
0
CIRCLE
5
110
100
AcDbEntity
8
INTERIOR_PROFILES
100
AcDbCircle
10
-110.22139188842523
20
75.509246495010586
30
0
40
1.6499999999999915
210
0
220
0
230
-1
0
CIRCLE
5
111
100
AcDbEntity
8
INTERIOR_PROFILES
100
AcDbCircle
10
-404.73055943678025
20
13.499994630733898
30
0
40
1.6499999999999915
210
0
220
0
230
-1
0
LWPOLYLINE
5
112
100
AcDbEntity
8
INTERIOR_PROFILES
100
AcDbPolyline
90
4
70
1
43
0.0
10
66.10071196083581
20
64.566869335977856
10
66.100711960834246
20
73.433130664022045
42
0.99999999999999989
10
62.966973288878449
20
73.433130664022059
10
62.966973288881434
20
64.56686933597787
42
0.99999999999999989
0
LWPOLYLINE
5
113
100
AcDbEntity
8
INTERIOR_PROFILES
100
AcDbPolyline
90
4
70
1
43
0.0
10
62.966973288879551
20
36.566869335977891
42
0.99999999999999989
10
66.100711960835412
20
36.56686933597787
10
66.100711960830125
20
45.433130664022066
42
0.99999999999999989
10
62.96697328887916
20
45.433130664022052
0
LWPOLYLINE
5
114
100
AcDbEntity
8
INTERIOR_PROFILES
100
AcDbPolyline
90
4
70
1
43
0.0
10
62.966973288879764
20
50.566869335977891
42
0.99999999999999989
10
66.100711960835639
20
50.566869335977842
10
66.100711960831973
20
59.433130664022038
42
0.99999999999999989
10
62.966973288879586
20
59.433130664022038
0
CIRCLE
5
115
100
AcDbEntity
8
INTERIOR_PROFILES
100
AcDbCircle
10
-110.23064500212769
20
13.499993381320561
30
0
40
1.6499999999999915
210
0
220
0
230
-1
0
LWPOLYLINE
5
116
100
AcDbEntity
8
INTERIOR_PROFILES
100
AcDbPolyline
90
4
70
1
43
0.0
10
62.966973288878911
20
22.566869335977916
42
0.99999999999999989
10
66.100711960834786
20
22.566869335977874
10
66.100711960829699
20
31.433130664022066
42
0.99999999999999989
10
62.966973288878734
20
31.433130664022066
0
LWPOLYLINE
5
117
100
AcDbEntity
8
INTERIOR_PROFILES
100
AcDbPolyline
90
4
70
1
43
0.0
10
62.966973288878343
20
8.5668693359778683
42
0.99999999999999989
10
66.100711960834218
20
8.5668693359778789
10
66.100711960834957
20
17.433130664022087
42
0.99999999999999989
10
62.96697328887916
20
17.433130664022052
0
LWPOLYLINE
5
118
100
AcDbEntity
8
INTERIOR_PROFILES
100
AcDbPolyline
90
4
70
1
43
0.0
10
444.4943034780095
20
45.43313066402213
42
0.99999999999999989
10
441.36056480605367
20
45.43313066402213
10
441.36056480605419
20
36.566869335977955
42
0.99999999999999989
10
444.49430347800967
20
36.566869335977955
0
LWPOLYLINE
5
119
100
AcDbEntity
8
INTERIOR_PROFILES
100
AcDbPolyline
90
4
70
1
43
0.0
10
62.966973288880901
20
92.566869335977856
42
0.99999999999999989
10
66.100711960836776
20
92.566869335977856
10
66.10071196083517
20
101.43313066402203
42
0.99999999999999989
10
62.966973288880936
20
101.43313066402203
0
LWPOLYLINE
5
120
100
AcDbEntity
8
INTERIOR_PROFILES
100
AcDbPolyline
90
4
70
1
43
0.0
10
444.49430347800921
20
50.566869335977955
10
444.49430347800933
20
59.433130664022173
42
0.99999999999999989
10
441.36056480605339
20
59.433130664022116
10
441.36056480605396
20
50.56686933597797
42
0.99999999999999989
0
LWPOLYLINE
5
121
100
AcDbEntity
8
INTERIOR_PROFILES
100
AcDbPolyline
90
4
70
1
43
0.0
10
444.49430347801058
20
8.5668693359779802
10
444.49430347801126
20
17.433130664022194
42
0.99999999999999989
10
441.36056480605475
20
17.433130664022123
10
441.36056480605407
20
8.5668693359779446
42
0.99999999999999989
0
LWPOLYLINE
5
122
100
AcDbEntity
8
INTERIOR_PROFILES
100
AcDbPolyline
90
4
70
1
43
0.0
10
66.100711960834559
20
87.43313066402203
42
0.99999999999999989
10
62.96697328887884
20
87.43313066402203
10
62.966973288880084
20
78.566869335977884
42
0.99999999999999989
10
66.100711960836307
20
78.566869335977856
0
LWPOLYLINE
5
123
100
AcDbEntity
8
INTERIOR_PROFILES
100
AcDbPolyline
90
4
70
1
43
0.0
10
441.36056480605299
20
73.433130664022116
10
441.36056480605271
20
64.566869335977955
42
0.99999999999999989
10
444.49430347800876
20
64.566869335977955
10
444.49430347800865
20
73.433130664022158
42
0.99999999999999989
0
LWPOLYLINE
5
124
100
AcDbEntity
8
INTERIOR_PROFILES
100
AcDbPolyline
90
4
70
1
43
0.0
10
441.36056480605254
20
87.433130664022116
10
441.36056480605293
20
78.56686933597797
42
0.99999999999999989
10
444.49430347800831
20
78.566869335977941
10
444.49430347800791
20
87.433130664022158
42
0.99999999999999989
0
LWPOLYLINE
5
125
100
AcDbEntity
8
INTERIOR_PROFILES
100
AcDbPolyline
90
4
70
1
43
0.0
10
441.36056480605203
20
101.43313066402212
10
441.36056480605191
20
92.56686933597797
42
0.99999999999999989
10
444.49430347800774
20
92.566869335977927
10
444.49430347800813
20
101.43313066402214
42
0.99999999999999989
0
LWPOLYLINE
5
126
100
AcDbEntity
8
INTERIOR_PROFILES
100
AcDbPolyline
90
4
70
1
43
0.0
10
441.3605648060543
20
31.433130664022126
10
441.3605648060535
20
22.566869335978001
42
0.99999999999999989
10
444.49430347801012
20
22.566869335977966
10
444.49430347801012
20
31.433130664022162
42
0.99999999999999989
0
LINE
5
127
100
AcDbEntity
8
BEND
100
AcDbLine
10
64.533842624857911
20
110.00000000000003
30
-2.7782680121448007e-13
11
64.533842624857911
21
0
31
8.9299400916237117e-14
0
LINE
5
128
100
AcDbEntity
8
BEND
100
AcDbLine
10
442.92743414203181
20
110.00000000000006
30
-7.5317052058177253e-12
11
442.92743414203181
21
3.5527136788005009e-14
31
-7.2905449122518318e-12
0
LINE
5
129
100
AcDbEntity
8
BEND_EXTENT
100
AcDbLine
10
62.966973288878307
20
8.5668693359778736
30
7.8652518005986494e-15
11
62.966973288879515
21
-1.7763568394002505e-14
31
-2.7661884987429584e-14
0
LINE
5
130
100
AcDbEntity
8
BEND_EXTENT
100
AcDbLine
10
62.966973288878734
20
22.566869335977877
30
4.3392388588595581e-14
11
62.966973288878307
21
17.433130664022034
31
7.8652518005986494e-15
0
LINE
5
131
100
AcDbEntity
8
BEND_EXTENT
100
AcDbLine
10
62.96697328887916
20
36.56686933597787
30
7.8919525376592512e-14
11
62.966973288878734
21
31.433130664022066
31
4.3392388588595581e-14
0
LINE
5
132
100
AcDbEntity
8
BEND_EXTENT
100
AcDbLine
10
62.966973288879586
20
50.566869335977856
30
7.8919525376583424e-14
11
62.96697328887916
21
45.433130664022052
31
7.8652518005824935e-15
0
LINE
5
133
100
AcDbEntity
8
BEND_EXTENT
100
AcDbLine
10
62.966973288880013
20
64.566869335977856
30
4.3392388588570337e-14
11
62.966973288879586
21
59.433130664022038
31
7.8919525376583424e-14
0
LINE
5
134
100
AcDbEntity
8
BEND_EXTENT
100
AcDbLine
10
62.96697328888051
20
78.56686933597787
30
4.339238858856024e-14
11
62.966973288880013
21
73.433130664022045
31
4.3392388588570337e-14
0
LINE
5
135
100
AcDbEntity
8
BEND_EXTENT
100
AcDbLine
10
62.966973288880936
20
92.566869335977856
30
7.8919525376557171e-14
11
62.96697328888051
21
87.433130664022059
31
4.339238858856024e-14
0
LINE
5
136
100
AcDbEntity
8
BEND_EXTENT
100
AcDbLine
10
62.966973288879444
20
110.00000000000001
30
-2.7661884987428574e-14
11
62.966973288880936
21
101.43313066402203
31
7.8919525376557171e-14
0
LINE
5
137
100
AcDbEntity
8
BEND_EXTENT
100
AcDbLine
10
444.49430347800921
20
110.00000000000006
30
-7.3011106089534334e-12
11
444.49430347800791
21
101.43313066402212
31
-7.3011106089534075e-12
0
LINE
5
138
100
AcDbEntity
8
BEND_EXTENT
100
AcDbLine
10
444.49430347800785
20
92.566869335977941
30
-7.3011106089534075e-12
11
444.49430347800836
21
87.433130664022116
31
-7.2833470405594131e-12
0
LINE
5
139
100
AcDbEntity
8
BEND_EXTENT
100
AcDbLine
10
444.49430347800831
20
78.566869335977941
30
-7.2655834721654106e-12
11
444.49430347800876
21
73.433130664022116
31
-7.2833470405594212e-12
0
LINE
5
140
100
AcDbEntity
8
BEND_EXTENT
100
AcDbLine
10
444.49430347800876
20
64.566869335977955
30
-7.2833470405594212e-12
11
444.49430347800921
21
59.433130664022116
31
-7.2833470405594309e-12
0
LINE
5
141
100
AcDbEntity
8
BEND_EXTENT
100
AcDbLine
10
444.49430347800921
20
50.566869335977955
30
-7.2833470405594309e-12
11
444.49430347800967
21
45.433130664022116
31
-7.2833470405594406e-12
0
LINE
5
142
100
AcDbEntity
8
BEND_EXTENT
100
AcDbLine
10
444.49430347800967
20
36.566869335977955
30
-7.2833470405594406e-12
11
444.49430347801012
21
31.433130664022126
31
-7.3011106089534511e-12
0
LINE
5
143
100
AcDbEntity
8
BEND_EXTENT
100
AcDbLine
10
444.49430347801012
20
22.566869335977966
30
-7.3011106089534511e-12
11
444.49430347801058
21
17.433130664022141
31
-7.3011106089534592e-12
0
LINE
5
144
100
AcDbEntity
8
BEND_EXTENT
100
AcDbLine
10
444.49430347801058
20
8.5668693359779802
30
-7.2833470405594567e-12
11
444.49430347800921
21
3.5527136788005009e-14
31
-7.3188741773474359e-12
0
LINE
5
145
100
AcDbEntity
8
BEND_EXTENT
100
AcDbLine
10
441.36056480605384
20
36.566869335977934
30
-7.2751452070342246e-12
11
441.3605648060543
21
31.433130664022126
31
-7.2751452070342327e-12
0
LINE
5
146
100
AcDbEntity
8
BEND_EXTENT
100
AcDbLine
10
441.36056480605339
20
110.00000000000003
30
-7.2751452070342149e-12
11
441.36056480605203
21
101.43313066402212
31
-7.275145207034189e-12
0
LINE
5
147
100
AcDbEntity
8
BEND_EXTENT
100
AcDbLine
10
441.36056480605203
20
92.566869335977927
30
-7.275145207034189e-12
11
441.36056480605254
21
87.433130664022116
31
-7.2751452070341979e-12
0
LINE
5
148
100
AcDbEntity
8
BEND_EXTENT
100
AcDbLine
10
441.36056480605254
20
78.566869335977927
30
-7.2662634228371967e-12
11
441.36056480605299
21
73.433130664022116
31
-7.2662634228372048e-12
0
LINE
5
149
100
AcDbEntity
8
BEND_EXTENT
100
AcDbLine
10
441.3605648060543
20
22.56686933597793
30
-7.2662634228372314e-12
11
441.36056480605475
21
17.433130664022123
31
-7.2662634228372403e-12
0
LINE
5
150
100
AcDbEntity
8
BEND_EXTENT
100
AcDbLine
10
441.36056480605475
20
8.5668693359779446
30
-7.257381638640239e-12
11
441.36056480605339
21
1.7763568394002505e-14
31
-7.2751452070342149e-12
0
LINE
5
151
100
AcDbEntity
8
BEND_EXTENT
100
AcDbLine
10
441.36056480605299
20
64.566869335977927
30
-7.2662634228372048e-12
11
441.36056480605339
21
59.433130664022116
31
-7.2751452070342149e-12
0
LINE
5
152
100
AcDbEntity
8
BEND_EXTENT
100
AcDbLine
10
441.36056480605339
20
50.566869335977941
30
-7.2751452070342149e-12
11
441.36056480605384
21
45.433130664022116
31
-7.2751452070342246e-12
0
LINE
5
153
100
AcDbEntity
8
BEND_EXTENT
100
AcDbLine
10
66.100711960835312
20
110.00000000000001
30
8.8481260245372388e-14
11
66.100711960836591
21
101.43313066402202
31
8.8481260245347144e-14
0
LINE
5
154
100
AcDbEntity
8
BEND_EXTENT
100
AcDbLine
10
66.100711960836733
20
92.566869335977842
30
8.8481260245344115e-14
11
66.100711960836165
21
87.433130664022016
31
8.8481260245356232e-14
0
LINE
5
155
100
AcDbEntity
8
BEND_EXTENT
100
AcDbLine
10
66.100711960834886
20
36.56686933597787
30
8.8481260245380466e-14
11
66.100711960834388
21
31.433130664022045
31
8.8481260245390563e-14
0
LINE
5
156
100
AcDbEntity
8
BEND_EXTENT
100
AcDbLine
10
66.100711960835312
20
50.566869335977842
30
8.8481260245372388e-14
11
66.100711960834886
21
45.433130664022052
31
8.8481260245380466e-14
0
LINE
5
157
100
AcDbEntity
8
BEND_EXTENT
100
AcDbLine
10
66.100711960836307
20
78.566869335977856
30
9.7363044442354455e-14
11
66.100711960835739
21
73.433130664022016
31
9.7363044442365562e-14
0
LINE
5
158
100
AcDbEntity
8
BEND_EXTENT
100
AcDbLine
10
66.10071196083446
20
22.566869335977877
30
9.7363044442390806e-14
11
66.100711960834033
21
17.433130664022052
31
9.7363044442398884e-14
0
LINE
5
159
100
AcDbEntity
8
BEND_EXTENT
100
AcDbLine
10
66.100711960834033
20
8.5668693359778914
30
1.0624482863940014e-13
11
66.100711960835312
21
0
31
8.8481260245372388e-14
0
LINE
5
160
100
AcDbEntity
8
BEND_EXTENT
100
AcDbLine
10
66.10071196083581
20
64.566869335977856
30
9.7363044442363543e-14
11
66.100711960835312
21
59.433130664022016
31
8.8481260245372388e-14
0
ENDSEC
0
SECTION
2
OBJECTS
0
DICTIONARY
5
C
100
AcDbDictionary
3
ACAD_GROUP
350
D
3
ACAD_MLINESTYLE
350
17
0
DICTIONARY
5
D
100
AcDbDictionary
0
DICTIONARY
5
1A
330
C
100
AcDbDictionary
0
DICTIONARY
5
17
100
AcDbDictionary
0
ENDSEC
0
EOF
